<svg xmlns="http://www.w3.org/2000/svg" xmlns:xlink="http://www.w3.org/1999/xlink" version="1.1" x="0px" y="30px" viewBox="-13 -20 120 120" style="enable-background:new 0 0 100 100;" fill="#9395ff" xml:space="preserve"><style type="text/css">
	.st0{fill-rule:evenodd;clip-rule:evenodd;}
</style><path class="st0" d="M53,73.5c0,1.8,0.5,3.5,1.3,4.9H40.9v11.7c0,3.6-4.7,5-6.7,2l-8.9-13.7H8.6c-2,0-3.7-1.6-3.7-3.7V26.3  c0-2,1.6-3.7,3.7-3.7h7v35.5c0,5.3,4.3,9.6,9.6,9.6H53V73.5z M94.9,9.7v48.5c0,2-1.6,3.7-3.7,3.7H74.5l-8.9,13.7  c-2,3.1-6.7,1.7-6.7-2V61.8H25.2c-2,0-3.7-1.6-3.7-3.7V9.7c0-2,1.6-3.7,3.7-3.7h66.1C93.3,6,94.9,7.7,94.9,9.7z M60.9,46.2  c0-0.8-0.3-1.6-0.9-2.2c-0.6-0.6-1.4-0.9-2.2-0.9c-1.2,0-2.4,0.7-2.8,1.9c-0.5,1.1-0.2,2.5,0.7,3.3c0.9,0.9,2.2,1.1,3.3,0.7  C60.1,48.6,60.9,47.5,60.9,46.2z M68.3,24.2c-0.1-2.7-1.2-5.3-3.2-7.2c-1.9-1.9-4.5-3-7.3-3h-0.1c-2,0-3.9,0.6-5.5,1.6  c-1.6,1-3,2.5-3.8,4.3c-0.4,0.7-0.4,1.6-0.1,2.3c0.3,0.8,0.8,1.4,1.6,1.7l0,0c0.7,0.4,1.6,0.4,2.3,0.1c0.8-0.3,1.4-0.8,1.7-1.6  c0.7-1.5,2.2-2.5,3.9-2.5c2.4,0,4.3,1.9,4.4,4.2c0.1,1.9-1.1,3.6-3,4.3c-2.6,0.9-4.4,3.3-4.4,6.1v2.4c0,1.7,1.4,3.1,3.1,3.1  s3.1-1.4,3.1-3.1v-2.4c0-0.2,0.3-0.3,0.3-0.3c2.1-0.7,4-2.1,5.2-3.9C67.7,28.7,68.3,26.5,68.3,24.2z"/></svg>