<svg width="849" height="240" viewBox="0 0 849 240" fill="none" xmlns="http://www.w3.org/2000/svg">
<path d="M332.815 100.077C332.579 97.4725 331.525 95.4484 329.655 94.0043C327.808 92.5365 325.169 91.8026 321.736 91.8026C319.463 91.8026 317.569 92.0985 316.054 92.6903C314.539 93.2822 313.402 94.099 312.645 95.1406C311.887 96.1586 311.497 97.3305 311.473 98.6562C311.426 99.7453 311.639 100.704 312.112 101.533C312.609 102.361 313.32 103.095 314.243 103.734C315.19 104.35 316.326 104.894 317.652 105.368C318.978 105.841 320.469 106.256 322.126 106.611L328.376 108.031C331.975 108.812 335.147 109.854 337.893 111.156C340.663 112.458 342.983 114.009 344.854 115.808C346.748 117.607 348.18 119.679 349.151 122.023C350.121 124.366 350.618 126.994 350.642 129.906C350.618 134.499 349.458 138.441 347.162 141.732C344.866 145.022 341.563 147.544 337.254 149.295C332.969 151.047 327.796 151.923 321.736 151.923C315.652 151.923 310.348 151.012 305.827 149.189C301.305 147.366 297.789 144.596 295.28 140.879C292.77 137.162 291.48 132.463 291.409 126.781H308.241C308.384 129.125 309.011 131.078 310.124 132.641C311.236 134.203 312.763 135.387 314.705 136.192C316.67 136.997 318.942 137.399 321.523 137.399C323.89 137.399 325.902 137.08 327.56 136.44C329.241 135.801 330.531 134.913 331.43 133.777C332.33 132.641 332.792 131.339 332.815 129.871C332.792 128.498 332.366 127.326 331.537 126.355C330.708 125.361 329.43 124.509 327.702 123.798C325.997 123.064 323.819 122.39 321.168 121.774L313.568 119.999C307.271 118.554 302.311 116.223 298.689 113.003C295.067 109.759 293.268 105.38 293.291 99.8636C293.268 95.3655 294.475 91.4238 296.913 88.0384C299.352 84.6529 302.725 82.0133 307.034 80.1193C311.343 78.2254 316.255 77.2784 321.771 77.2784C327.406 77.2784 332.295 78.2372 336.438 80.1548C340.604 82.0488 343.836 84.7121 346.132 88.1449C348.429 91.5777 349.6 95.5549 349.648 100.077H332.815ZM390.308 96.4545V109.239H355.898V96.4545H390.308ZM363.107 83.3864H380.472V133.848C380.472 134.913 380.637 135.777 380.969 136.44C381.324 137.08 381.833 137.541 382.496 137.825C383.159 138.086 383.952 138.216 384.875 138.216C385.538 138.216 386.236 138.157 386.97 138.038C387.728 137.896 388.296 137.778 388.675 137.683L391.303 150.219C390.474 150.455 389.302 150.751 387.787 151.107C386.295 151.462 384.508 151.687 382.425 151.781C378.353 151.971 374.861 151.497 371.949 150.361C369.061 149.201 366.847 147.402 365.308 144.963C363.793 142.525 363.059 139.459 363.107 135.766V83.3864ZM434.36 127.456V96.4545H451.69V151H435.141V140.844H434.573C433.366 144.182 431.306 146.833 428.394 148.798C425.506 150.74 422.014 151.71 417.918 151.71C414.201 151.71 410.934 150.858 408.117 149.153C405.3 147.449 403.11 145.07 401.548 142.016C399.985 138.938 399.192 135.339 399.168 131.22V96.4545H416.533V127.811C416.557 130.77 417.338 133.102 418.877 134.807C420.416 136.511 422.511 137.364 425.163 137.364C426.891 137.364 428.442 136.985 429.815 136.227C431.211 135.446 432.312 134.321 433.117 132.854C433.946 131.362 434.36 129.563 434.36 127.456ZM482.664 151.781C478.64 151.781 474.982 150.74 471.691 148.656C468.401 146.573 465.773 143.448 463.808 139.281C461.843 135.115 460.86 129.942 460.86 123.763C460.86 117.347 461.878 112.068 463.914 107.925C465.95 103.782 468.614 100.716 471.904 98.7273C475.219 96.7386 478.782 95.7443 482.593 95.7443C485.458 95.7443 487.908 96.2415 489.944 97.2358C491.98 98.2064 493.661 99.4612 494.987 101C496.313 102.539 497.319 104.137 498.005 105.794H498.36V78.2727H515.725V151H498.538V142.158H498.005C497.271 143.839 496.23 145.413 494.88 146.881C493.531 148.348 491.838 149.532 489.802 150.432C487.79 151.331 485.411 151.781 482.664 151.781ZM488.701 138.251C490.808 138.251 492.608 137.66 494.099 136.476C495.591 135.268 496.739 133.576 497.544 131.398C498.349 129.22 498.751 126.663 498.751 123.727C498.751 120.744 498.349 118.176 497.544 116.021C496.762 113.867 495.614 112.21 494.099 111.05C492.608 109.89 490.808 109.31 488.701 109.31C486.547 109.31 484.724 109.902 483.233 111.085C481.741 112.269 480.605 113.938 479.824 116.092C479.066 118.247 478.687 120.792 478.687 123.727C478.687 126.663 479.078 129.22 479.859 131.398C480.64 133.576 481.765 135.268 483.233 136.476C484.724 137.66 486.547 138.251 488.701 138.251ZM537.325 171.455C535.242 171.455 533.277 171.289 531.43 170.957C529.584 170.65 527.998 170.235 526.672 169.714L530.507 157.108C532.212 157.676 533.75 158.008 535.124 158.102C536.52 158.197 537.716 157.972 538.71 157.428C539.728 156.907 540.509 155.972 541.054 154.622L541.729 152.989L522.339 96.4545H540.521L550.571 135.375H551.139L561.331 96.4545H579.619L559.058 156.22C558.064 159.203 556.655 161.831 554.832 164.104C553.033 166.4 550.701 168.199 547.837 169.501C544.996 170.804 541.492 171.455 537.325 171.455ZM669.658 78.2727V151H654.744L625.802 109.026H625.34V151H607.762V78.2727H622.89L651.512 120.176H652.116V78.2727H669.658ZM706.173 152.03C700.444 152.03 695.52 150.858 691.4 148.514C687.305 146.147 684.144 142.856 681.919 138.642C679.717 134.404 678.616 129.492 678.616 123.905C678.616 118.294 679.717 113.382 681.919 109.168C684.144 104.93 687.305 101.639 691.4 99.2955C695.52 96.928 700.444 95.7443 706.173 95.7443C711.902 95.7443 716.815 96.928 720.91 99.2955C725.029 101.639 728.19 104.93 730.392 109.168C732.617 113.382 733.73 118.294 733.73 123.905C733.73 129.492 732.617 134.404 730.392 138.642C728.19 142.856 725.029 146.147 720.91 148.514C716.815 150.858 711.902 152.03 706.173 152.03ZM706.279 138.926C708.363 138.926 710.127 138.287 711.571 137.009C713.015 135.73 714.116 133.955 714.873 131.682C715.654 129.409 716.045 126.781 716.045 123.798C716.045 120.768 715.654 118.116 714.873 115.844C714.116 113.571 713.015 111.795 711.571 110.517C710.127 109.239 708.363 108.599 706.279 108.599C704.125 108.599 702.302 109.239 700.811 110.517C699.343 111.795 698.218 113.571 697.437 115.844C696.68 118.116 696.301 120.768 696.301 123.798C696.301 126.781 696.68 129.409 697.437 131.682C698.218 133.955 699.343 135.73 700.811 137.009C702.302 138.287 704.125 138.926 706.279 138.926ZM751.645 151L737.441 96.4545H754.877L762.228 131.398H762.689L770.573 96.4545H787.583L795.679 131.149H796.141L803.279 96.4545H820.715L806.475 151H787.902L779.38 119.217H778.776L770.253 151H751.645Z" fill="#AE91FD"/>
<path d="M42.4222 123.188L70.5677 124.819L63.6333 110.542L64.857 97.4895L66.0807 70.1598C63.6333 71.1116 59.3911 70.4045 60.37 68.1203C61.5938 65.2649 73.0151 26.9218 117.885 22.8427C139.504 20.8774 135.425 23.6585 153.373 30.5929C164.986 35.0799 178.391 57.1068 182.742 69.344L178.663 72.1993V91.7788L181.926 106.463L173.768 124.003L178.663 124.819L203.545 123.188L212.927 110.95L214.151 89.3314L209.664 72.1993L193.347 68.1203L191.308 58.7384L174.992 35.0799L153.373 19.5795L125.635 11.4214L110.542 13.4609L85.6602 21.619L62.0017 41.1985L49.7645 68.1203L36.7115 72.1993L29.3692 84.0286L31.4087 113.806L42.4222 123.188Z" fill="#AE91FD" stroke="#AE91FD"/>
<path d="M41.2364 142.747L112.28 165.543" stroke="#AE91FD" stroke-width="2.5" stroke-linecap="round"/>
<path d="M38.8097 146.926L112.054 170.427" stroke="#AE91FD" stroke-width="2.5" stroke-linecap="round"/>
<line x1="34.1726" y1="132.553" x2="121.95" y2="160.721" stroke="#AE91FD" stroke-width="5"/>
<line x1="29.4885" y1="150.818" x2="35.7204" y2="131.398" stroke="#AE91FD" stroke-width="5"/>
<line x1="122.319" y1="180.667" x2="122.319" y2="159.083" stroke="#AE91FD" stroke-width="5"/>
<rect x="15.517" y="146.431" width="113.163" height="24.4728" rx="12.2364" transform="rotate(17.7914 15.517 146.431)" fill="#BCA4FF" stroke="#AE91FD" stroke-width="5"/>
<path d="M199.992 142.747L133.209 165.543" stroke="#AE91FD" stroke-width="2.5" stroke-linecap="round"/>
<path d="M202.273 146.925L133.422 170.427" stroke="#AE91FD" stroke-width="2.5" stroke-linecap="round"/>
<line y1="-2.5" x2="89.7393" y2="-2.5" transform="matrix(-0.946511 0.322672 0.288402 0.957509 207.356 134.95)" stroke="#AE91FD" stroke-width="5"/>
<line y1="-2.5" x2="20.284" y2="-2.5" transform="matrix(-0.288801 -0.957389 -0.946376 0.323066 208.798 151.581)" stroke="#AE91FD" stroke-width="5"/>
<rect x="-1.64394" y="3.20114" width="106.757" height="24.3123" rx="12.1562" transform="matrix(-0.946376 0.323066 0.288801 0.957389 221.565 143.954)" fill="#BCA4FF" stroke="#AE91FD" stroke-width="5"/>
<path d="M122.3 11.4214C102.58 11.6031 60.3665 23.5775 49.2706 70.0216" stroke="#AE91FD" stroke-width="5"/>
<path d="M51.5629 68.898C39.0823 67.4398 27.6225 71.0401 29.5906 98.3591C31.718 127.889 41.9294 123.514 72.989 124.334" stroke="#AE91FD" stroke-width="5"/>
<path d="M192.364 68.8324C204.845 67.3725 216.305 70.9771 214.337 98.3283C212.21 127.893 201.998 123.513 170.937 124.334" stroke="#AE91FD" stroke-width="5"/>
<path d="M64.5558 70.5642V96.88" stroke="#AE91FD" stroke-width="5"/>
<path d="M121.734 22.2732C107.486 21.2785 75.3121 29.2184 60.593 68.9364" stroke="#AE91FD" stroke-width="3" stroke-linecap="round"/>
<path d="M60.31 68.9364C61.2535 69.8408 64.6691 71.3781 70.7832 70.2929C78.4258 68.9364 82.6717 65.1383 85.2192 65.9522C87.7667 66.7661 99.3721 73.0059 103.335 71.6494C107.298 70.2929 116.639 62.9679 121.168 65.9522" stroke="#AE91FD" stroke-width="3" stroke-linecap="round"/>
<path d="M121.168 11.4742C140.887 11.6559 183.101 23.6304 194.197 70.0745" stroke="#AE91FD" stroke-width="5.09146"/>
<path d="M178.912 70.6171V96.933" stroke="#AE91FD" stroke-width="5.09146"/>
<path d="M121.734 22.3262C135.981 21.3314 168.155 29.2714 182.875 68.9894" stroke="#AE91FD" stroke-width="3.05488" stroke-linecap="round"/>
<path d="M183.157 68.9894C182.214 69.8937 178.798 71.4311 172.684 70.3459C165.042 68.9894 160.796 65.1912 158.248 66.0051C155.701 66.819 144.095 73.0588 140.132 71.7023C136.17 70.3459 126.829 63.0208 122.3 66.0051" stroke="#AE91FD" stroke-width="3.05488" stroke-linecap="round"/>
<path d="M119.469 65.4096C120.13 65.8617 121.734 66.6032 122.866 65.9521" stroke="#AE91FD" stroke-width="3" stroke-linecap="round"/>
<g filter="url(#filter0_d_9_115)">
<ellipse cx="87.8178" cy="105.629" rx="26.392" ry="25.5074" fill="white"/>
<path d="M111.71 105.629C111.71 118.256 101.094 128.636 87.8178 128.636C74.5416 128.636 63.9258 118.256 63.9258 105.629C63.9258 93.0017 74.5416 82.6212 87.8178 82.6212C101.094 82.6212 111.71 93.0017 111.71 105.629Z" stroke="#AE91FD" stroke-width="5"/>
</g>
<g filter="url(#filter1_d_9_115)">
<ellipse cx="156.789" cy="105.629" rx="26.392" ry="25.5074" fill="white"/>
<path d="M180.681 105.629C180.681 118.256 170.065 128.636 156.789 128.636C143.513 128.636 132.897 118.256 132.897 105.629C132.897 93.0017 143.513 82.6212 156.789 82.6212C170.065 82.6212 180.681 93.0017 180.681 105.629Z" stroke="#AE91FD" stroke-width="5"/>
</g>
<g filter="url(#filter2_d_9_115)">
<mask id="path-29-inside-1_9_115" fill="white">
<path d="M133.175 105.818C129.956 103.77 126.203 102.644 122.35 102.571C118.497 102.499 114.701 103.482 111.402 105.407L113.606 108.935C116.216 107.412 119.218 106.634 122.267 106.691C125.315 106.749 128.284 107.639 130.831 109.26L133.175 105.818Z"/>
</mask>
<path d="M133.175 105.818C129.956 103.77 126.203 102.644 122.35 102.571C118.497 102.499 114.701 103.482 111.402 105.407L113.606 108.935C116.216 107.412 119.218 106.634 122.267 106.691C125.315 106.749 128.284 107.639 130.831 109.26L133.175 105.818Z" fill="white"/>
<path d="M133.175 105.818C129.956 103.77 126.203 102.644 122.35 102.571C118.497 102.499 114.701 103.482 111.402 105.407L113.606 108.935C116.216 107.412 119.218 106.634 122.267 106.691C125.315 106.749 128.284 107.639 130.831 109.26L133.175 105.818Z" stroke="#AE91FD" stroke-width="10" mask="url(#path-29-inside-1_9_115)"/>
</g>
<path d="M170.688 110.666L154.855 92.4288" stroke="#AE91FD" stroke-width="2.5" stroke-linecap="round"/>
<path d="M173.099 104.801L162.477 92.567" stroke="#AE91FD" stroke-width="2.5" stroke-linecap="round"/>
<rect x="107.746" y="180.428" width="29.1121" height="24.4728" rx="12.2364" transform="rotate(-0.146409 107.746 180.428)" fill="#BCA4FF" stroke="#AE91FD" stroke-width="5"/>
<defs>
<filter id="filter0_d_9_115" x="57.4258" y="80.1212" width="60.7841" height="59.0147" filterUnits="userSpaceOnUse" color-interpolation-filters="sRGB">
<feFlood flood-opacity="0" result="BackgroundImageFix"/>
<feColorMatrix in="SourceAlpha" type="matrix" values="0 0 0 0 0 0 0 0 0 0 0 0 0 0 0 0 0 0 127 0" result="hardAlpha"/>
<feOffset dy="4"/>
<feGaussianBlur stdDeviation="2"/>
<feComposite in2="hardAlpha" operator="out"/>
<feColorMatrix type="matrix" values="0 0 0 0 0 0 0 0 0 0 0 0 0 0 0 0 0 0 0.25 0"/>
<feBlend mode="normal" in2="BackgroundImageFix" result="effect1_dropShadow_9_115"/>
<feBlend mode="normal" in="SourceGraphic" in2="effect1_dropShadow_9_115" result="shape"/>
</filter>
<filter id="filter1_d_9_115" x="126.397" y="80.1212" width="60.7841" height="59.0147" filterUnits="userSpaceOnUse" color-interpolation-filters="sRGB">
<feFlood flood-opacity="0" result="BackgroundImageFix"/>
<feColorMatrix in="SourceAlpha" type="matrix" values="0 0 0 0 0 0 0 0 0 0 0 0 0 0 0 0 0 0 127 0" result="hardAlpha"/>
<feOffset dy="4"/>
<feGaussianBlur stdDeviation="2"/>
<feComposite in2="hardAlpha" operator="out"/>
<feColorMatrix type="matrix" values="0 0 0 0 0 0 0 0 0 0 0 0 0 0 0 0 0 0 0.25 0"/>
<feBlend mode="normal" in2="BackgroundImageFix" result="effect1_dropShadow_9_115"/>
<feBlend mode="normal" in="SourceGraphic" in2="effect1_dropShadow_9_115" result="shape"/>
</filter>
<filter id="filter2_d_9_115" x="107.402" y="102.568" width="29.7734" height="14.6921" filterUnits="userSpaceOnUse" color-interpolation-filters="sRGB">
<feFlood flood-opacity="0" result="BackgroundImageFix"/>
<feColorMatrix in="SourceAlpha" type="matrix" values="0 0 0 0 0 0 0 0 0 0 0 0 0 0 0 0 0 0 127 0" result="hardAlpha"/>
<feOffset dy="4"/>
<feGaussianBlur stdDeviation="2"/>
<feComposite in2="hardAlpha" operator="out"/>
<feColorMatrix type="matrix" values="0 0 0 0 0 0 0 0 0 0 0 0 0 0 0 0 0 0 0.25 0"/>
<feBlend mode="normal" in2="BackgroundImageFix" result="effect1_dropShadow_9_115"/>
<feBlend mode="normal" in="SourceGraphic" in2="effect1_dropShadow_9_115" result="shape"/>
</filter>
</defs>
</svg>
