<svg xmlns="http://www.w3.org/2000/svg" version="1.1" viewBox="-5.0 -10.0 110.0 135.0" fill="#9395ff">
 <path d="m14.816 18.52c-2.1641 0-4.0469 1.2695-4.9609 3.0938l32.348 29.094c1.4336 1.2891 3.293 2.0039 5.2188 2.0039h5.1641c1.9258 0 3.7852-0.71484 5.2188-2.0039l32.344-29.102c-0.91797-1.8203-2.8008-3.0859-4.9648-3.0859zm75.926 7.5352-26.617 23.941 26.617 23.945zm-81.484 0.003906v47.879l26.613-23.941zm29.387 26.43-28.797 25.898c0.91406 1.8242 2.8008 3.0977 4.9648 3.0977l70.371-0.003906c2.1641 0 4.0469-1.2695 4.9609-3.0938l-28.793-25.898-1.0742 0.96875c-2.1133 1.9023-4.8555 2.957-7.6953 2.957h-5.1641c-2.8398 0-5.5859-1.0547-7.6953-2.9531z"/></svg>