<svg xmlns="http://www.w3.org/2000/svg" viewBox="-5 -8 70 85" x="0px" y="0px" fill="#9395ff"><path d="M14,21.231V39a1,1,0,0,1-1,1H7a5.006,5.006,0,0,1-5-5V25.231a5.006,5.006,0,0,1,5-5h6A1,1,0,0,1,14,21.231ZM13,42H7a1,1,0,0,0-1,1v8a3,3,0,0,0,3,3h2a3,3,0,0,0,3-3V43A1,1,0,0,0,13,42ZM61,28.5H58a1.5,1.5,0,0,0,0,3h3a1.5,1.5,0,0,0,0-3Zm-5.929-4.071a1.5,1.5,0,0,0,1.061-.44l2.121-2.121a1.5,1.5,0,0,0-2.121-2.121l-2.121,2.121a1.5,1.5,0,0,0,1.06,2.561Zm1.061,11.582a1.5,1.5,0,0,0-2.121,2.121l2.121,2.121a1.5,1.5,0,0,0,2.121-2.121ZM49,25H48V15.093a5.072,5.072,0,0,0-.637-2.544,5.011,5.011,0,0,0-6.118-2.227l-24.6,9.223a1,1,0,0,0-.649.936V39.75a1,1,0,0,0,.649.937l24.6,9.223a5,5,0,0,0,5.9-1.872A5.15,5.15,0,0,0,48,45.1V35h1a4,4,0,0,0,4-4V29A4,4,0,0,0,49,25Z"/></svg>