<svg xmlns="http://www.w3.org/2000/svg" xmlns:xlink="http://www.w3.org/1999/xlink" xml:space="preserve" version="1.1" style="shape-rendering:geometricPrecision; text-rendering:geometricPrecision;image-rendering:optimizeQuality;" viewBox="0 0 350 330" x="0px" y="0px" fill-rule="evenodd" clip-rule="evenodd"><defs><style type="text/css">
   
    .fil0 {fill:rgb(174, 145, 253);fill-rule:nonzero}
   
  </style></defs><g><path class="fil0" d="M325 173l-131 73c-27,14 -28,15 -51,5 0,0 -111,-53 -111,-53 -18,-9 -35,-16 -31,-40 2,-12 6,-21 20,-26l70 -26 0 11 0 0c0,2 0,4 1,5 2,2 3,3 5,3 23,7 46,10 68,10 24,0 47,-3 70,-9 2,-1 4,-2 6,-4l0 0c1,-1 2,-3 2,-5l0 -20c0,2 1,3 2,5l0 0c2,1 4,2 7,2l15 0c3,0 5,-1 7,-2l0 0c1,-1 1,-2 2,-3l55 14c3,1 3,6 0,7 0,0 -162,82 -162,82 -7,3 -7,3 -27,-6 -37,-16 -73,-34 -110,-49 -12,-4 -22,-1 -25,12 -3,20 13,25 28,34 0,0 109,51 109,51 21,10 23,9 47,-4l134 -75 0 8zm-63 -133l0 25 2 0c4,0 6,3 6,6 0,4 -2,6 -6,6l-2 0 0 2c4,1 8,5 8,9l0 7c0,1 -1,2 -3,2l-15 0c-2,0 -3,-1 -3,-2l0 -7c0,-4 4,-8 8,-9l0 -2 -2 0c-4,0 -6,-2 -6,-6 0,-3 2,-6 6,-6l2 0 0 -24 -21 7 0 69c0,1 -1,2 -2,2 -45,12 -90,13 -135,0 -1,0 -1,-1 -1,-2l0 -69 -39 -12c-2,0 -2,-3 0,-4l107 -32c0,0 1,0 1,0l107 32c2,1 2,4 0,4l-12 4z"/></g></svg>