<svg width="530" height="532" viewBox="0 0 530 532" fill="none" xmlns="http://www.w3.org/2000/svg">
<mask id="path-1-outside-1_14_20" maskUnits="userSpaceOnUse" x="261.78" y="457.209" width="6" height="26" fill="black">
<rect fill="white" x="261.78" y="457.209" width="6" height="26"/>
<path d="M263.744 481.027V459.209H266.258V481.027H263.744Z"/>
</mask>
<path d="M263.744 481.027V459.209H266.258V481.027H263.744Z" fill="#AE91FD"/>
<path d="M263.744 481.027H262.244V482.527H263.744V481.027ZM263.744 459.209V457.709H262.244V459.209H263.744ZM266.258 459.209H267.758V457.709H266.258V459.209ZM266.258 481.027V482.527H267.758V481.027H266.258ZM265.244 481.027V459.209H262.244V481.027H265.244ZM263.744 460.709H266.258V457.709H263.744V460.709ZM264.758 459.209V481.027H267.758V459.209H264.758ZM266.258 479.527H263.744V482.527H266.258V479.527Z" fill="#AE91FD" mask="url(#path-1-outside-1_14_20)"/>
<mask id="path-3-outside-2_14_20" maskUnits="userSpaceOnUse" x="183.598" y="442.492" width="25.0366" height="26.2319" fill="black">
<rect fill="white" x="183.598" y="442.492" width="25.0366" height="26.2319"/>
<path d="M198.901 447.213C200.289 447.719 201.387 448.492 202.194 449.534C202.995 450.574 203.473 451.795 203.628 453.197C203.776 454.596 203.561 456.09 202.983 457.678C202.4 459.28 201.601 460.572 200.585 461.556C199.563 462.537 198.411 463.168 197.13 463.45C195.841 463.729 194.503 463.616 193.115 463.111C191.727 462.606 190.632 461.833 189.832 460.793C189.024 459.751 188.548 458.527 188.402 457.121C188.25 455.713 188.465 454.208 189.048 452.606C189.626 451.018 190.425 449.736 191.445 448.762C192.458 447.786 193.608 447.158 194.896 446.878C196.178 446.596 197.513 446.708 198.901 447.213ZM198.129 449.336C197.074 448.952 196.108 448.906 195.231 449.199C194.353 449.492 193.591 450.019 192.943 450.781C192.295 451.543 191.784 452.438 191.41 453.466C191.036 454.494 190.851 455.511 190.855 456.518C190.859 457.524 191.102 458.425 191.583 459.22C192.065 460.015 192.833 460.605 193.887 460.988C194.942 461.372 195.909 461.414 196.789 461.115C197.669 460.815 198.434 460.281 199.084 459.513C199.734 458.744 200.246 457.846 200.62 456.818C200.994 455.79 201.178 454.777 201.172 453.777C201.166 452.777 200.92 451.882 200.436 451.094C199.952 450.306 199.183 449.72 198.129 449.336Z"/>
</mask>
<path d="M198.901 447.213C200.289 447.719 201.387 448.492 202.194 449.534C202.995 450.574 203.473 451.795 203.628 453.197C203.776 454.596 203.561 456.09 202.983 457.678C202.4 459.28 201.601 460.572 200.585 461.556C199.563 462.537 198.411 463.168 197.13 463.45C195.841 463.729 194.503 463.616 193.115 463.111C191.727 462.606 190.632 461.833 189.832 460.793C189.024 459.751 188.548 458.527 188.402 457.121C188.25 455.713 188.465 454.208 189.048 452.606C189.626 451.018 190.425 449.736 191.445 448.762C192.458 447.786 193.608 447.158 194.896 446.878C196.178 446.596 197.513 446.708 198.901 447.213ZM198.129 449.336C197.074 448.952 196.108 448.906 195.231 449.199C194.353 449.492 193.591 450.019 192.943 450.781C192.295 451.543 191.784 452.438 191.41 453.466C191.036 454.494 190.851 455.511 190.855 456.518C190.859 457.524 191.102 458.425 191.583 459.22C192.065 460.015 192.833 460.605 193.887 460.988C194.942 461.372 195.909 461.414 196.789 461.115C197.669 460.815 198.434 460.281 199.084 459.513C199.734 458.744 200.246 457.846 200.62 456.818C200.994 455.79 201.178 454.777 201.172 453.777C201.166 452.777 200.92 451.882 200.436 451.094C199.952 450.306 199.183 449.72 198.129 449.336Z" fill="#AE91FD"/>
<path d="M202.194 449.534L203.383 448.619L203.38 448.616L202.194 449.534ZM203.628 453.197L205.119 453.039L205.119 453.032L203.628 453.197ZM200.585 461.556L201.624 462.638L201.629 462.633L200.585 461.556ZM197.13 463.45L197.448 464.916L197.452 464.915L197.13 463.45ZM189.832 460.793L191.02 459.878L191.018 459.875L189.832 460.793ZM188.402 457.121L189.894 456.967L189.893 456.96L188.402 457.121ZM191.445 448.762L192.481 449.847L192.486 449.842L191.445 448.762ZM194.896 446.878L195.214 448.344L195.219 448.343L194.896 446.878ZM195.231 449.199L195.706 450.622L195.706 450.622L195.231 449.199ZM192.943 450.781L191.8 449.81L191.8 449.81L192.943 450.781ZM190.855 456.518L189.355 456.524L189.355 456.524L190.855 456.518ZM191.583 459.22L190.3 459.997L190.3 459.997L191.583 459.22ZM196.789 461.115L197.272 462.535L197.272 462.535L196.789 461.115ZM199.084 459.513L200.229 460.481L200.229 460.481L199.084 459.513ZM201.172 453.777L202.672 453.767L202.672 453.767L201.172 453.777ZM200.436 451.094L199.158 451.879L199.158 451.879L200.436 451.094ZM198.388 448.623C199.543 449.043 200.395 449.661 201.009 450.453L203.38 448.616C202.379 447.324 201.035 446.394 199.414 445.804L198.388 448.623ZM201.006 450.45C201.626 451.255 202.01 452.212 202.137 453.361L205.119 453.032C204.936 451.378 204.364 449.893 203.383 448.619L201.006 450.45ZM202.136 453.355C202.256 454.486 202.089 455.749 201.573 457.165L204.393 458.191C205.033 456.431 205.296 454.706 205.119 453.039L202.136 453.355ZM201.573 457.165C201.052 458.597 200.364 459.682 199.542 460.478L201.629 462.633C202.838 461.463 203.748 459.963 204.393 458.191L201.573 457.165ZM199.547 460.473C198.707 461.279 197.798 461.767 196.808 461.985L197.452 464.915C199.024 464.569 200.419 463.794 201.624 462.638L199.547 460.473ZM196.812 461.984C195.833 462.196 194.783 462.122 193.628 461.701L192.602 464.52C194.223 465.11 195.85 465.262 197.448 464.916L196.812 461.984ZM193.628 461.701C192.473 461.281 191.626 460.665 191.02 459.878L188.643 461.709C189.639 463.001 190.981 463.93 192.602 464.52L193.628 461.701ZM191.018 459.875C190.394 459.07 190.013 458.115 189.894 456.967L186.91 457.276C187.083 458.939 187.655 460.433 188.646 461.712L191.018 459.875ZM189.893 456.96C189.77 455.821 189.937 454.549 190.457 453.119L187.638 452.093C186.993 453.867 186.729 455.605 186.911 457.283L189.893 456.96ZM190.457 453.119C190.972 451.705 191.658 450.633 192.481 449.847L190.408 447.678C189.192 448.84 188.28 450.331 187.638 452.093L190.457 453.119ZM192.486 449.842C193.312 449.045 194.217 448.56 195.214 448.344L194.579 445.412C193 445.755 191.603 446.526 190.403 447.682L192.486 449.842ZM195.219 448.343C196.188 448.13 197.233 448.202 198.388 448.623L199.414 445.804C197.793 445.214 196.168 445.063 194.574 445.413L195.219 448.343ZM198.642 447.926C197.339 447.452 196.019 447.355 194.756 447.776L195.706 450.622C196.198 450.458 196.81 450.452 197.616 450.745L198.642 447.926ZM194.756 447.776C193.598 448.163 192.61 448.857 191.8 449.81L194.086 451.753C194.571 451.182 195.109 450.821 195.706 450.622L194.756 447.776ZM191.8 449.81C191.027 450.72 190.43 451.773 190.001 452.953L192.82 453.979C193.139 453.103 193.564 452.367 194.086 451.753L191.8 449.81ZM190.001 452.953C189.571 454.133 189.35 455.325 189.355 456.524L192.355 456.512C192.352 455.697 192.501 454.855 192.82 453.979L190.001 452.953ZM189.355 456.524C189.36 457.779 189.666 458.95 190.3 459.997L192.866 458.443C192.537 457.9 192.358 457.27 192.355 456.512L189.355 456.524ZM190.3 459.997C190.994 461.142 192.068 461.922 193.374 462.398L194.4 459.579C193.598 459.287 193.136 458.889 192.866 458.443L190.3 459.997ZM193.374 462.398C194.681 462.874 196.006 462.966 197.272 462.535L196.306 459.695C195.813 459.863 195.203 459.871 194.4 459.579L193.374 462.398ZM197.272 462.535C198.431 462.141 199.419 461.44 200.229 460.481L197.939 458.544C197.449 459.123 196.907 459.49 196.306 459.695L197.272 462.535ZM200.229 460.481C201.003 459.567 201.601 458.511 202.03 457.331L199.211 456.305C198.892 457.181 198.465 457.922 197.939 458.544L200.229 460.481ZM202.03 457.331C202.459 456.152 202.68 454.961 202.672 453.767L199.672 453.786C199.677 454.592 199.53 455.429 199.211 456.305L202.03 457.331ZM202.672 453.767C202.664 452.516 202.354 451.35 201.715 450.309L199.158 451.879C199.487 452.415 199.667 453.037 199.672 453.786L202.672 453.767ZM201.715 450.309C201.018 449.175 199.945 448.4 198.642 447.926L197.616 450.745C198.422 451.039 198.887 451.437 199.158 451.879L201.715 450.309Z" fill="#AE91FD" mask="url(#path-3-outside-2_14_20)"/>
<mask id="path-5-outside-3_14_20" maskUnits="userSpaceOnUse" x="121.11" y="406.315" width="26.5213" height="27.0143" fill="black">
<rect fill="white" x="121.11" y="406.315" width="26.5213" height="27.0143"/>
<path d="M140.983 413.774C141.777 414.44 142.372 415.195 142.769 416.037C143.16 416.885 143.307 417.754 143.208 418.645C143.105 419.542 142.711 420.398 142.027 421.214C141.424 421.932 140.794 422.395 140.137 422.604C139.475 422.818 138.8 422.855 138.112 422.713C137.424 422.572 136.742 422.324 136.066 421.97C135.38 421.616 134.714 421.234 134.067 420.821C133.224 420.28 132.544 419.835 132.03 419.487C131.506 419.14 131.082 418.937 130.759 418.88C130.431 418.818 130.137 418.942 129.877 419.252L129.822 419.317C129.147 420.123 128.842 420.933 128.908 421.749C128.969 422.56 129.443 423.338 130.33 424.082C131.249 424.854 132.139 425.257 132.999 425.293C133.859 425.329 134.587 425.207 135.183 424.928L136.463 427.115C135.498 427.603 134.565 427.83 133.665 427.798C132.754 427.767 131.905 427.564 131.116 427.189C130.317 426.816 129.602 426.364 128.971 425.835C128.568 425.497 128.147 425.06 127.707 424.523C127.257 423.988 126.91 423.368 126.667 422.664C126.418 421.954 126.38 421.166 126.551 420.299C126.722 419.432 127.225 418.501 128.061 417.505L134.991 409.246L136.917 410.863L135.492 412.56L135.59 412.642C135.949 412.48 136.411 412.371 136.976 412.317C137.541 412.262 138.167 412.339 138.856 412.546C139.545 412.752 140.253 413.162 140.983 413.774ZM139.237 415.257C138.475 414.618 137.708 414.229 136.934 414.09C136.156 413.946 135.434 413.999 134.77 414.249C134.101 414.494 133.548 414.878 133.109 415.4L131.63 417.163C131.794 417.133 132.049 417.194 132.395 417.345C132.731 417.498 133.103 417.694 133.513 417.936C133.912 418.178 134.298 418.419 134.672 418.659C135.036 418.899 135.333 419.092 135.562 419.239C136.118 419.593 136.675 419.88 137.233 420.098C137.782 420.317 138.31 420.395 138.819 420.33C139.317 420.266 139.772 419.989 140.183 419.5C140.744 418.831 140.921 418.117 140.714 417.359C140.496 416.601 140.004 415.901 139.237 415.257Z"/>
</mask>
<path d="M140.983 413.774C141.777 414.44 142.372 415.195 142.769 416.037C143.16 416.885 143.307 417.754 143.208 418.645C143.105 419.542 142.711 420.398 142.027 421.214C141.424 421.932 140.794 422.395 140.137 422.604C139.475 422.818 138.8 422.855 138.112 422.713C137.424 422.572 136.742 422.324 136.066 421.97C135.38 421.616 134.714 421.234 134.067 420.821C133.224 420.28 132.544 419.835 132.03 419.487C131.506 419.14 131.082 418.937 130.759 418.88C130.431 418.818 130.137 418.942 129.877 419.252L129.822 419.317C129.147 420.123 128.842 420.933 128.908 421.749C128.969 422.56 129.443 423.338 130.33 424.082C131.249 424.854 132.139 425.257 132.999 425.293C133.859 425.329 134.587 425.207 135.183 424.928L136.463 427.115C135.498 427.603 134.565 427.83 133.665 427.798C132.754 427.767 131.905 427.564 131.116 427.189C130.317 426.816 129.602 426.364 128.971 425.835C128.568 425.497 128.147 425.06 127.707 424.523C127.257 423.988 126.91 423.368 126.667 422.664C126.418 421.954 126.38 421.166 126.551 420.299C126.722 419.432 127.225 418.501 128.061 417.505L134.991 409.246L136.917 410.863L135.492 412.56L135.59 412.642C135.949 412.48 136.411 412.371 136.976 412.317C137.541 412.262 138.167 412.339 138.856 412.546C139.545 412.752 140.253 413.162 140.983 413.774ZM139.237 415.257C138.475 414.618 137.708 414.229 136.934 414.09C136.156 413.946 135.434 413.999 134.77 414.249C134.101 414.494 133.548 414.878 133.109 415.4L131.63 417.163C131.794 417.133 132.049 417.194 132.395 417.345C132.731 417.498 133.103 417.694 133.513 417.936C133.912 418.178 134.298 418.419 134.672 418.659C135.036 418.899 135.333 419.092 135.562 419.239C136.118 419.593 136.675 419.88 137.233 420.098C137.782 420.317 138.31 420.395 138.819 420.33C139.317 420.266 139.772 419.989 140.183 419.5C140.744 418.831 140.921 418.117 140.714 417.359C140.496 416.601 140.004 415.901 139.237 415.257Z" fill="#AE91FD"/>
<path d="M142.769 416.037L144.13 415.408L144.126 415.399L142.769 416.037ZM143.208 418.645L144.699 418.817L144.699 418.81L143.208 418.645ZM140.137 422.604L139.683 421.175L139.675 421.177L140.137 422.604ZM138.112 422.713L138.414 421.244L138.112 422.713ZM136.066 421.97L136.762 420.641L136.753 420.636L136.066 421.97ZM134.067 420.821L133.258 422.084L133.261 422.086L134.067 420.821ZM132.03 419.487L132.871 418.245L132.865 418.241L132.858 418.237L132.03 419.487ZM130.759 418.88L130.481 420.354L130.489 420.355L130.496 420.357L130.759 418.88ZM128.908 421.749L130.404 421.637L130.403 421.627L128.908 421.749ZM132.999 425.293L133.061 423.794L133.061 423.794L132.999 425.293ZM135.183 424.928L136.477 424.17L135.786 422.989L134.547 423.57L135.183 424.928ZM136.463 427.115L137.14 428.454L138.564 427.734L137.758 426.357L136.463 427.115ZM133.665 427.798L133.718 426.299L133.716 426.299L133.665 427.798ZM131.116 427.189L131.759 425.834L131.751 425.831L131.116 427.189ZM127.707 424.523L128.866 423.572L128.86 423.565L128.855 423.558L127.707 424.523ZM126.667 422.664L128.085 422.174L128.082 422.167L126.667 422.664ZM126.551 420.299L128.022 420.59L128.022 420.59L126.551 420.299ZM134.991 409.246L135.955 408.097L134.806 407.133L133.842 408.282L134.991 409.246ZM136.917 410.863L138.066 411.827L139.03 410.678L137.881 409.713L136.917 410.863ZM135.492 412.56L134.343 411.596L133.379 412.745L134.528 413.709L135.492 412.56ZM135.59 412.642L134.626 413.791L135.349 414.398L136.209 414.009L135.59 412.642ZM136.976 412.317L136.832 410.824L136.832 410.824L136.976 412.317ZM138.856 412.546L138.424 413.982L138.856 412.546ZM136.934 414.09L136.662 415.565L136.669 415.566L136.934 414.09ZM134.77 414.249L135.286 415.658L135.298 415.653L134.77 414.249ZM131.63 417.163L130.481 416.199L127.818 419.372L131.896 418.639L131.63 417.163ZM132.395 417.345L133.013 415.979L133.004 415.975L132.995 415.971L132.395 417.345ZM133.513 417.936L134.291 416.653L134.283 416.649L134.275 416.644L133.513 417.936ZM134.672 418.659L135.499 417.407L135.49 417.401L135.481 417.396L134.672 418.659ZM135.562 419.239L136.37 417.974L136.368 417.974L135.562 419.239ZM137.233 420.098L137.79 418.705L137.779 418.701L137.233 420.098ZM138.819 420.33L139.008 421.818L139.009 421.818L138.819 420.33ZM140.714 417.359L142.161 416.963L142.158 416.954L142.156 416.945L140.714 417.359ZM140.018 414.923C140.665 415.465 141.117 416.051 141.411 416.676L144.126 415.399C143.627 414.338 142.888 413.415 141.947 412.624L140.018 414.923ZM141.407 416.666C141.689 417.277 141.785 417.873 141.718 418.48L144.699 418.81C144.829 417.636 144.632 416.493 144.13 415.408L141.407 416.666ZM141.718 418.474C141.654 419.029 141.408 419.617 140.878 420.25L143.176 422.178C144.015 421.178 144.556 420.054 144.699 418.817L141.718 418.474ZM140.878 420.25C140.394 420.826 139.988 421.078 139.683 421.175L140.591 424.034C141.6 423.713 142.454 423.038 143.176 422.178L140.878 420.25ZM139.675 421.177C139.262 421.311 138.851 421.334 138.414 421.244L137.81 424.183C138.749 424.376 139.688 424.326 140.599 424.031L139.675 421.177ZM138.414 421.244C137.875 421.133 137.325 420.936 136.762 420.641L135.37 423.299C136.16 423.712 136.974 424.01 137.81 424.183L138.414 421.244ZM136.753 420.636C136.107 420.304 135.481 419.944 134.874 419.557L133.261 422.086C133.946 422.523 134.652 422.929 135.379 423.303L136.753 420.636ZM134.877 419.559C134.038 419.021 133.371 418.583 132.871 418.245L131.189 420.729C131.718 421.087 132.409 421.54 133.258 422.084L134.877 419.559ZM132.858 418.237C132.291 417.861 131.657 417.516 131.023 417.403L130.496 420.357C130.481 420.354 130.535 420.362 130.672 420.428C130.804 420.491 130.979 420.59 131.202 420.738L132.858 418.237ZM131.038 417.406C130.055 417.22 129.249 417.667 128.728 418.288L131.026 420.216C131.043 420.196 130.999 420.257 130.876 420.309C130.738 420.367 130.593 420.375 130.481 420.354L131.038 417.406ZM128.728 418.288L128.673 418.353L130.971 420.282L131.026 420.216L128.728 418.288ZM128.673 418.353C127.819 419.371 127.307 420.558 127.413 421.871L130.403 421.627C130.377 421.308 130.474 420.874 130.971 420.282L128.673 418.353ZM127.412 421.861C127.515 423.221 128.302 424.339 129.366 425.231L131.294 422.933C130.584 422.338 130.424 421.9 130.404 421.637L127.412 421.861ZM129.366 425.231C130.441 426.134 131.637 426.738 132.937 426.792L133.061 423.794C132.641 423.777 132.058 423.574 131.294 422.933L129.366 425.231ZM132.937 426.792C133.966 426.834 134.949 426.694 135.819 426.286L134.547 423.57C134.226 423.72 133.753 423.823 133.061 423.794L132.937 426.792ZM133.888 425.686L135.169 427.873L137.758 426.357L136.477 424.17L133.888 425.686ZM135.787 425.776C135.002 426.173 134.319 426.321 133.718 426.299L133.611 429.297C134.81 429.34 135.993 429.033 137.14 428.454L135.787 425.776ZM133.716 426.299C133.002 426.275 132.355 426.117 131.759 425.834L130.473 428.544C131.455 429.011 132.507 429.259 133.613 429.297L133.716 426.299ZM131.751 425.831C131.062 425.508 130.459 425.125 129.935 424.685L128.007 426.984C128.744 427.603 129.572 428.123 130.48 428.548L131.751 425.831ZM129.935 424.685C129.622 424.423 129.265 424.058 128.866 423.572L126.547 425.475C127.029 426.062 127.515 426.571 128.007 426.984L129.935 424.685ZM128.855 423.558C128.531 423.173 128.272 422.717 128.085 422.174L125.249 423.153C125.548 424.02 125.982 424.804 126.559 425.489L128.855 423.558ZM128.082 422.167C127.937 421.752 127.894 421.241 128.022 420.59L125.079 420.009C124.865 421.092 124.9 422.157 125.251 423.16L128.082 422.167ZM128.022 420.59C128.127 420.061 128.466 419.356 129.21 418.47L126.912 416.541C125.985 417.646 125.317 418.804 125.079 420.009L128.022 420.59ZM129.21 418.47L136.14 410.211L133.842 408.282L126.912 416.541L129.21 418.47ZM134.026 410.396L135.952 412.012L137.881 409.713L135.955 408.097L134.026 410.396ZM135.768 409.898L134.343 411.596L136.641 413.524L138.066 411.827L135.768 409.898ZM134.528 413.709L134.626 413.791L136.554 411.493L136.456 411.411L134.528 413.709ZM136.209 414.009C136.367 413.937 136.653 413.855 137.12 413.81L136.832 410.824C136.169 410.888 135.531 411.022 134.972 411.276L136.209 414.009ZM137.12 413.81C137.447 413.778 137.874 413.817 138.424 413.982L139.288 411.109C138.461 410.86 137.635 410.746 136.832 410.824L137.12 413.81ZM138.424 413.982C138.866 414.115 139.397 414.402 140.018 414.923L141.947 412.624C141.11 411.922 140.224 411.39 139.288 411.109L138.424 413.982ZM140.201 414.108C139.291 413.345 138.29 412.81 137.2 412.614L136.669 415.566C137.125 415.648 137.659 415.891 138.273 416.406L140.201 414.108ZM137.206 412.615C136.191 412.428 135.19 412.488 134.242 412.845L135.298 415.653C135.678 415.51 136.12 415.465 136.662 415.565L137.206 412.615ZM134.255 412.84C133.351 413.171 132.575 413.703 131.96 414.436L134.258 416.364C134.52 416.052 134.852 415.817 135.286 415.658L134.255 412.84ZM131.96 414.436L130.481 416.199L132.779 418.127L134.258 416.364L131.96 414.436ZM131.896 418.639C131.784 418.659 131.7 418.657 131.658 418.653C131.614 418.65 131.591 418.644 131.596 418.645C131.599 418.646 131.617 418.651 131.653 418.663C131.688 418.676 131.735 418.694 131.794 418.72L132.995 415.971C132.773 415.874 132.535 415.785 132.293 415.727C132.067 415.674 131.734 415.62 131.365 415.687L131.896 418.639ZM131.776 418.712C132.051 418.837 132.375 419.006 132.75 419.228L134.275 416.644C133.831 416.382 133.41 416.159 133.013 415.979L131.776 418.712ZM132.734 419.218C133.124 419.454 133.5 419.689 133.863 419.922L135.481 417.396C135.097 417.149 134.7 416.902 134.291 416.653L132.734 419.218ZM133.845 419.91C134.213 420.153 134.517 420.351 134.756 420.504L136.368 417.974C136.149 417.834 135.86 417.645 135.499 417.407L133.845 419.91ZM134.755 420.503C135.385 420.905 136.029 421.238 136.687 421.495L137.779 418.701C137.32 418.522 136.851 418.282 136.37 417.974L134.755 420.503ZM136.677 421.491C137.425 421.79 138.211 421.919 139.008 421.818L138.63 418.842C138.41 418.87 138.138 418.844 137.79 418.705L136.677 421.491ZM139.009 421.818C139.975 421.694 140.747 421.161 141.332 420.464L139.034 418.536C138.797 418.818 138.659 418.838 138.628 418.842L139.009 421.818ZM141.332 420.464C142.169 419.467 142.514 418.254 142.161 416.963L139.267 417.755C139.329 417.98 139.32 418.194 139.034 418.536L141.332 420.464ZM142.156 416.945C141.836 415.831 141.135 414.892 140.201 414.108L138.273 416.406C138.873 416.91 139.157 417.371 139.272 417.773L142.156 416.945Z" fill="#AE91FD" mask="url(#path-5-outside-3_14_20)"/>
<mask id="path-7-outside-4_14_20" maskUnits="userSpaceOnUse" x="71.4269" y="352.535" width="32.0167" height="29.4545" fill="black">
<rect fill="white" x="71.4269" y="352.535" width="32.0167" height="29.4545"/>
<path d="M97.4983 362.01C98.1801 363.191 98.4837 364.406 98.4091 365.654C98.3283 366.907 97.8879 368.104 97.0878 369.247C96.2816 370.393 95.1281 371.399 93.6273 372.266C92.1388 373.125 90.6998 373.615 89.3102 373.737C87.9206 373.859 86.6647 373.636 85.5425 373.071C84.4203 372.505 83.5148 371.625 82.8259 370.432C82.2932 369.509 82.0261 368.692 82.0247 367.979C82.0136 367.264 82.1201 366.653 82.3443 366.146C82.5587 365.637 82.7428 365.231 82.8965 364.929L82.79 364.745L75.815 368.772L74.5579 366.594L93.453 355.685L94.6675 357.789L92.4901 359.046L92.6393 359.304C92.9899 359.315 93.4473 359.354 94.0114 359.422C94.5694 359.494 95.1602 359.715 95.7837 360.085C96.4012 360.458 96.9727 361.1 97.4983 362.01ZM95.3719 362.844C94.8676 361.971 94.2139 361.364 93.4107 361.024C92.6014 360.688 91.7002 360.597 90.7072 360.752C89.7081 360.911 88.6734 361.299 87.6031 361.917C86.5452 362.528 85.7083 363.216 85.0924 363.981C84.4704 364.751 84.1119 365.564 84.0171 366.423C83.9161 367.285 84.1213 368.159 84.6327 369.044C85.1653 369.967 85.846 370.599 86.6747 370.941C87.4938 371.28 88.3949 371.371 89.3782 371.213C90.3518 371.053 91.3368 370.685 92.3333 370.11C93.342 369.527 94.1697 368.844 94.8163 368.061C95.4533 367.275 95.8389 366.437 95.9732 365.548C96.0979 364.656 95.8974 363.754 95.3719 362.844Z"/>
</mask>
<path d="M97.4983 362.01C98.1801 363.191 98.4837 364.406 98.4091 365.654C98.3283 366.907 97.8879 368.104 97.0878 369.247C96.2816 370.393 95.1281 371.399 93.6273 372.266C92.1388 373.125 90.6998 373.615 89.3102 373.737C87.9206 373.859 86.6647 373.636 85.5425 373.071C84.4203 372.505 83.5148 371.625 82.8259 370.432C82.2932 369.509 82.0261 368.692 82.0247 367.979C82.0136 367.264 82.1201 366.653 82.3443 366.146C82.5587 365.637 82.7428 365.231 82.8965 364.929L82.79 364.745L75.815 368.772L74.5579 366.594L93.453 355.685L94.6675 357.789L92.4901 359.046L92.6393 359.304C92.9899 359.315 93.4473 359.354 94.0114 359.422C94.5694 359.494 95.1602 359.715 95.7837 360.085C96.4012 360.458 96.9727 361.1 97.4983 362.01ZM95.3719 362.844C94.8676 361.971 94.2139 361.364 93.4107 361.024C92.6014 360.688 91.7002 360.597 90.7072 360.752C89.7081 360.911 88.6734 361.299 87.6031 361.917C86.5452 362.528 85.7083 363.216 85.0924 363.981C84.4704 364.751 84.1119 365.564 84.0171 366.423C83.9161 367.285 84.1213 368.159 84.6327 369.044C85.1653 369.967 85.846 370.599 86.6747 370.941C87.4938 371.28 88.3949 371.371 89.3782 371.213C90.3518 371.053 91.3368 370.685 92.3333 370.11C93.342 369.527 94.1697 368.844 94.8163 368.061C95.4533 367.275 95.8389 366.437 95.9732 365.548C96.0979 364.656 95.8974 363.754 95.3719 362.844Z" fill="#AE91FD"/>
<path d="M98.4091 365.654L99.906 365.751L99.9064 365.744L98.4091 365.654ZM97.0878 369.247L98.3147 370.11L98.3165 370.107L97.0878 369.247ZM89.3102 373.737L89.4409 375.231L89.4409 375.231L89.3102 373.737ZM85.5425 373.071L84.8672 374.41L84.8672 374.41L85.5425 373.071ZM82.0247 367.979L83.5247 367.976L83.5247 367.966L83.5246 367.956L82.0247 367.979ZM82.3443 366.146L83.716 366.753L83.7215 366.741L83.7267 366.728L82.3443 366.146ZM82.8965 364.929L84.2333 365.61L84.6026 364.884L84.1955 364.179L82.8965 364.929ZM82.79 364.745L84.089 363.995L83.339 362.696L82.04 363.446L82.79 364.745ZM75.815 368.772L74.516 369.522L75.266 370.821L76.565 370.071L75.815 368.772ZM74.5579 366.594L73.8079 365.295L72.5089 366.045L73.2589 367.344L74.5579 366.594ZM93.453 355.685L94.7521 354.935L94.0021 353.636L92.703 354.386L93.453 355.685ZM94.6675 357.789L95.4175 359.088L96.7165 358.338L95.9665 357.039L94.6675 357.789ZM92.4901 359.046L91.7401 357.747L90.4411 358.497L91.1911 359.796L92.4901 359.046ZM92.6393 359.304L91.3402 360.054L91.758 360.778L92.5932 360.804L92.6393 359.304ZM94.0114 359.422L94.2021 357.935L94.1909 357.933L94.0114 359.422ZM95.7837 360.085L96.56 358.801L96.5489 358.794L95.7837 360.085ZM93.4107 361.024L93.9955 359.643L93.9865 359.639L93.4107 361.024ZM90.7072 360.752L90.4758 359.27L90.4721 359.271L90.7072 360.752ZM85.0924 363.981L86.2588 364.925L86.2612 364.922L85.0924 363.981ZM84.0171 366.423L85.5069 366.597L85.508 366.588L84.0171 366.423ZM86.6747 370.941L87.2485 369.555L87.2464 369.554L86.6747 370.941ZM89.3782 371.213L89.6157 372.694L89.6219 372.693L89.3782 371.213ZM94.8163 368.061L95.9732 369.016L95.9817 369.005L94.8163 368.061ZM95.9732 365.548L97.4564 365.772L97.4577 365.763L97.4588 365.755L95.9732 365.548ZM96.1992 362.76C96.748 363.711 96.9672 364.636 96.9117 365.565L99.9064 365.744C100 364.176 99.6122 362.671 98.7973 361.26L96.1992 362.76ZM96.9122 365.558C96.851 366.506 96.5196 367.443 95.8591 368.386L98.3165 370.107C99.2562 368.765 99.8056 367.307 99.906 365.751L96.9122 365.558ZM95.8609 368.384C95.2061 369.315 94.2329 370.184 92.8773 370.967L94.3773 373.565C96.0232 372.614 97.357 371.471 98.3147 370.11L95.8609 368.384ZM92.8773 370.967C91.5354 371.741 90.3062 372.144 89.1794 372.243L89.4409 375.231C91.0933 375.087 92.7421 374.509 94.3773 373.565L92.8773 370.967ZM89.1794 372.243C88.0362 372.343 87.0642 372.158 86.2179 371.731L84.8672 374.41C86.2652 375.115 87.805 375.374 89.4409 375.231L89.1794 372.243ZM86.2179 371.731C85.3815 371.31 84.6824 370.648 84.1249 369.682L81.5268 371.182C82.3472 372.603 83.4592 373.7 84.8672 374.41L86.2179 371.731ZM84.1249 369.682C83.6632 368.882 83.5254 368.328 83.5247 367.976L80.5247 367.982C80.5269 369.056 80.9231 370.136 81.5268 371.182L84.1249 369.682ZM83.5246 367.956C83.5159 367.397 83.6013 367.012 83.716 366.753L80.9725 365.539C80.639 366.293 80.5114 367.131 80.5249 368.002L83.5246 367.956ZM83.7267 366.728C83.9347 366.234 84.1029 365.866 84.2333 365.61L81.5597 364.249C81.3827 364.597 81.1828 365.039 80.9619 365.564L83.7267 366.728ZM84.1955 364.179L84.089 363.995L81.4909 365.495L81.5975 365.679L84.1955 364.179ZM82.04 363.446L75.065 367.473L76.565 370.071L83.54 366.044L82.04 363.446ZM77.1141 368.022L75.857 365.844L73.2589 367.344L74.516 369.522L77.1141 368.022ZM75.3079 367.893L94.203 356.984L92.703 354.386L73.8079 365.295L75.3079 367.893ZM92.154 356.435L93.3685 358.539L95.9665 357.039L94.7521 354.935L92.154 356.435ZM93.9175 356.49L91.7401 357.747L93.2401 360.345L95.4175 359.088L93.9175 356.49ZM91.1911 359.796L91.3402 360.054L93.9383 358.554L93.7892 358.296L91.1911 359.796ZM92.5932 360.804C92.8807 360.812 93.2887 360.846 93.832 360.912L94.1909 357.933C93.6059 357.863 93.0992 357.818 92.6853 357.805L92.5932 360.804ZM93.8207 360.91C94.1262 360.949 94.5222 361.08 95.0185 361.375L96.5489 358.794C95.7981 358.349 95.0126 358.039 94.2021 357.935L93.8207 360.91ZM95.0075 361.368C95.3319 361.564 95.7463 361.976 96.1992 362.76L98.7973 361.26C98.1991 360.224 97.4704 359.352 96.56 358.801L95.0075 361.368ZM96.6709 362.094C96.0301 360.984 95.1445 360.129 93.9954 359.643L92.826 362.405C93.2833 362.599 93.7051 362.957 94.0728 363.594L96.6709 362.094ZM93.9865 359.639C92.8865 359.182 91.7008 359.079 90.4758 359.27L90.9387 362.234C91.6996 362.115 92.3163 362.194 92.8349 362.409L93.9865 359.639ZM90.4721 359.271C89.2563 359.464 88.0482 359.928 86.8531 360.618L88.3531 363.216C89.2985 362.67 90.1598 362.358 90.9424 362.233L90.4721 359.271ZM86.8531 360.618C85.6723 361.299 84.6802 362.101 83.9236 363.041L86.2612 364.922C86.7364 364.331 87.4181 363.756 88.3531 363.216L86.8531 360.618ZM83.9261 363.038C83.1505 363.997 82.6569 365.075 82.5262 366.258L85.508 366.588C85.567 366.054 85.7903 365.504 86.2588 364.925L83.9261 363.038ZM82.5273 366.248C82.3823 367.485 82.6906 368.681 83.3336 369.794L85.9317 368.294C85.552 367.637 85.4499 367.084 85.5069 366.597L82.5273 366.248ZM83.3336 369.794C83.9995 370.948 84.9135 371.837 86.103 372.328L87.2464 369.554C86.7786 369.361 86.3311 368.986 85.9317 368.294L83.3336 369.794ZM86.101 372.327C87.2071 372.785 88.3931 372.89 89.6157 372.694L89.1408 369.732C88.3967 369.851 87.7804 369.775 87.2485 369.555L86.101 372.327ZM89.6219 372.693C90.8007 372.499 91.9559 372.059 93.0833 371.409L91.5833 368.81C90.7178 369.31 89.9029 369.606 89.1346 369.733L89.6219 372.693ZM93.0833 371.409C94.2246 370.75 95.1971 369.956 95.9731 369.016L93.6595 367.106C93.1422 367.733 92.4594 368.305 91.5833 368.81L93.0833 371.409ZM95.9817 369.005C96.7654 368.038 97.2774 366.957 97.4564 365.772L94.4901 365.324C94.4004 365.917 94.1411 366.512 93.6509 367.116L95.9817 369.005ZM97.4588 365.755C97.6372 364.479 97.3345 363.244 96.6709 362.094L94.0728 363.594C94.4603 364.265 94.5586 364.832 94.4877 365.34L97.4588 365.755Z" fill="#AE91FD" mask="url(#path-7-outside-4_14_20)"/>
<mask id="path-9-outside-5_14_20" maskUnits="userSpaceOnUse" x="49.9687" y="294.721" width="26.9942" height="12.3933" fill="black">
<rect fill="white" x="49.9687" y="294.721" width="26.9942" height="12.3933"/>
<path d="M74.5553 300.463L58.4403 303.305L58.0037 300.829L74.1187 297.987L74.5553 300.463ZM55.5325 302.519C55.6176 303.002 55.5266 303.447 55.2595 303.855C54.9912 304.255 54.6262 304.496 54.1646 304.578C53.703 304.659 53.2776 304.557 52.8884 304.273C52.498 303.981 52.2603 303.594 52.1752 303.111C52.0901 302.628 52.1817 302.187 52.45 301.786C52.717 301.378 53.0814 301.134 53.543 301.053C54.0046 300.971 54.4307 301.076 54.8211 301.368C55.2102 301.653 55.4474 302.037 55.5325 302.519Z"/>
</mask>
<path d="M74.5553 300.463L58.4403 303.305L58.0037 300.829L74.1187 297.987L74.5553 300.463ZM55.5325 302.519C55.6176 303.002 55.5266 303.447 55.2595 303.855C54.9912 304.255 54.6262 304.496 54.1646 304.578C53.703 304.659 53.2776 304.557 52.8884 304.273C52.498 303.981 52.2603 303.594 52.1752 303.111C52.0901 302.628 52.1817 302.187 52.45 301.786C52.717 301.378 53.0814 301.134 53.543 301.053C54.0046 300.971 54.4307 301.076 54.8211 301.368C55.2102 301.653 55.4474 302.037 55.5325 302.519Z" fill="#AE91FD"/>
<path d="M74.5553 300.463L74.8158 301.94L76.293 301.68L76.0325 300.203L74.5553 300.463ZM58.4403 303.305L56.9631 303.565L57.2235 305.042L58.7008 304.782L58.4403 303.305ZM58.0037 300.829L57.7432 299.351L56.266 299.612L56.5265 301.089L58.0037 300.829ZM74.1187 297.987L75.5959 297.727L75.3355 296.249L73.8583 296.51L74.1187 297.987ZM55.2595 303.855L56.5059 304.689L56.5101 304.683L56.5142 304.677L55.2595 303.855ZM52.8884 304.273L51.9905 305.474L51.9965 305.479L52.0026 305.483L52.8884 304.273ZM52.45 301.786L53.6963 302.621L53.7006 302.614L53.7047 302.608L52.45 301.786ZM54.8211 301.368L53.9231 302.57L53.9292 302.574L53.9353 302.579L54.8211 301.368ZM74.2948 298.986L58.1798 301.827L58.7008 304.782L74.8158 301.94L74.2948 298.986ZM59.9175 303.044L59.4809 300.568L56.5265 301.089L56.9631 303.565L59.9175 303.044ZM58.2642 302.306L74.3792 299.464L73.8583 296.51L57.7432 299.351L58.2642 302.306ZM72.6415 298.247L73.0781 300.723L76.0325 300.203L75.5959 297.727L72.6415 298.247ZM54.0552 302.78C54.0745 302.889 54.0613 302.946 54.0048 303.033L56.5142 304.677C56.9918 303.948 57.1607 303.115 57.0097 302.259L54.0552 302.78ZM54.0131 303.02C53.995 303.047 53.9809 303.063 53.9725 303.072C53.9643 303.08 53.9595 303.083 53.9579 303.084C53.9563 303.085 53.9536 303.087 53.9476 303.089C53.9413 303.092 53.9277 303.096 53.9041 303.1L54.4251 306.055C55.302 305.9 56.0176 305.418 56.5059 304.689L54.0131 303.02ZM53.9041 303.1C53.8805 303.105 53.8662 303.105 53.8595 303.105C53.853 303.105 53.8498 303.104 53.848 303.104C53.8462 303.103 53.8405 303.102 53.83 303.097C53.8192 303.092 53.8005 303.081 53.7742 303.062L52.0026 305.483C52.7109 306.001 53.5481 306.21 54.4251 306.055L53.9041 303.1ZM53.7863 303.071C53.7036 303.009 53.6716 302.96 53.6524 302.851L50.6979 303.372C50.8489 304.228 51.2924 304.953 51.9905 305.474L53.7863 303.071ZM53.6524 302.851C53.6333 302.742 53.6472 302.694 53.6963 302.621L51.2036 300.952C50.7161 301.68 50.5469 302.515 50.6979 303.372L53.6524 302.851ZM53.7047 302.608C53.7234 302.58 53.7378 302.563 53.7462 302.554C53.7544 302.546 53.7588 302.543 53.7595 302.542C53.76 302.542 53.7614 302.541 53.7656 302.539C53.7701 302.538 53.7818 302.534 53.8035 302.53L53.2825 299.575C52.3954 299.732 51.679 300.226 51.1952 300.964L53.7047 302.608ZM53.8035 302.53C53.8252 302.526 53.8376 302.526 53.8424 302.526C53.8469 302.526 53.8485 302.526 53.8492 302.527C53.85 302.527 53.8551 302.528 53.8657 302.533C53.8766 302.539 53.8958 302.549 53.9231 302.57L55.719 300.167C55.0119 299.638 54.1697 299.419 53.2825 299.575L53.8035 302.53ZM53.9353 302.579C54.0065 302.631 54.0361 302.671 54.0552 302.78L57.0097 302.259C56.8586 301.402 56.4139 300.675 55.7068 300.158L53.9353 302.579Z" fill="#AE91FD" mask="url(#path-9-outside-5_14_20)"/>
<mask id="path-11-outside-6_14_20" maskUnits="userSpaceOnUse" x="54.1049" y="220.567" width="23.633" height="20.3883" fill="black">
<rect fill="white" x="54.1049" y="220.567" width="23.633" height="20.3883"/>
<path d="M63.955 234.175L73.6492 235.884L73.2126 238.36L57.0976 235.519L57.5194 233.127L60.0374 233.571L60.0744 233.361C59.3226 232.839 58.7663 232.149 58.4053 231.293C58.0374 230.434 57.9607 229.397 58.1753 228.18C58.3677 227.089 58.7599 226.173 59.3518 225.434C59.9368 224.693 60.7205 224.175 61.7029 223.88C62.6783 223.583 63.8515 223.555 65.2224 223.797L75.4622 225.603L75.0256 228.079L64.9537 226.303C63.6877 226.079 62.6435 226.234 61.8212 226.767C60.9918 227.299 60.476 228.138 60.2737 229.285C60.1344 230.076 60.1812 230.812 60.4141 231.495C60.6483 232.171 61.0627 232.746 61.6573 233.218C62.2519 233.691 63.0178 234.01 63.955 234.175Z"/>
</mask>
<path d="M63.955 234.175L73.6492 235.884L73.2126 238.36L57.0976 235.519L57.5194 233.127L60.0374 233.571L60.0744 233.361C59.3226 232.839 58.7663 232.149 58.4053 231.293C58.0374 230.434 57.9607 229.397 58.1753 228.18C58.3677 227.089 58.7599 226.173 59.3518 225.434C59.9368 224.693 60.7205 224.175 61.7029 223.88C62.6783 223.583 63.8515 223.555 65.2224 223.797L75.4622 225.603L75.0256 228.079L64.9537 226.303C63.6877 226.079 62.6435 226.234 61.8212 226.767C60.9918 227.299 60.476 228.138 60.2737 229.285C60.1344 230.076 60.1812 230.812 60.4141 231.495C60.6483 232.171 61.0627 232.746 61.6573 233.218C62.2519 233.691 63.0178 234.01 63.955 234.175Z" fill="#AE91FD"/>
<path d="M73.6492 235.884L75.1264 236.145L75.3869 234.668L73.9097 234.407L73.6492 235.884ZM73.2126 238.36L72.9522 239.838L74.4294 240.098L74.6898 238.621L73.2126 238.36ZM57.0976 235.519L55.6204 235.258L55.3599 236.736L56.8371 236.996L57.0976 235.519ZM57.5194 233.127L57.7799 231.65L56.3026 231.389L56.0422 232.866L57.5194 233.127ZM60.0374 233.571L59.7769 235.048L61.2541 235.308L61.5146 233.831L60.0374 233.571ZM60.0744 233.361L61.5516 233.621L61.7182 232.676L60.9299 232.129L60.0744 233.361ZM58.4053 231.293L59.7877 230.71L59.784 230.701L58.4053 231.293ZM59.3518 225.434L60.5228 226.371L60.529 226.364L59.3518 225.434ZM61.7029 223.88L62.135 225.316L62.1395 225.315L61.7029 223.88ZM75.4622 225.603L76.9394 225.863L77.1998 224.386L75.7226 224.125L75.4622 225.603ZM75.0256 228.079L74.7651 229.556L76.2423 229.816L76.5028 228.339L75.0256 228.079ZM61.8212 226.767L62.6307 228.03L62.6369 228.026L61.8212 226.767ZM60.4141 231.495L58.9944 231.98L58.9968 231.986L60.4141 231.495ZM61.6573 233.218L60.7239 234.392L60.7239 234.392L61.6573 233.218ZM63.6945 235.652L73.3887 237.362L73.9097 234.407L64.2155 232.698L63.6945 235.652ZM72.172 235.624L71.7354 238.1L74.6898 238.621L75.1264 236.145L72.172 235.624ZM73.4731 236.883L57.3581 234.042L56.8371 236.996L72.9522 239.838L73.4731 236.883ZM58.5748 235.779L58.9966 233.387L56.0422 232.866L55.6204 235.258L58.5748 235.779ZM57.2589 234.604L59.7769 235.048L60.2978 232.094L57.7799 231.65L57.2589 234.604ZM61.5146 233.831L61.5516 233.621L58.5971 233.1L58.5601 233.31L61.5146 233.831ZM60.9299 232.129C60.4158 231.772 60.0401 231.309 59.7877 230.71L57.0229 231.875C57.4924 232.989 58.2295 233.906 59.2188 234.593L60.9299 232.129ZM59.784 230.701C59.5628 230.186 59.4725 229.461 59.6525 228.44L56.6981 227.919C56.4489 229.332 56.512 230.683 57.0267 231.884L59.784 230.701ZM59.6525 228.44C59.8087 227.555 60.1129 226.883 60.5228 226.371L58.1808 224.497C57.4069 225.463 56.9267 226.623 56.6981 227.919L59.6525 228.44ZM60.529 226.364C60.9067 225.885 61.42 225.531 62.135 225.316L61.2708 222.443C60.0209 222.819 58.9669 223.501 58.1747 224.504L60.529 226.364ZM62.1395 225.315C62.8221 225.107 63.7429 225.059 64.9619 225.274L65.4829 222.32C63.9601 222.051 62.5346 222.059 61.2663 222.445L62.1395 225.315ZM64.9619 225.274L75.2017 227.08L75.7226 224.125L65.4829 222.32L64.9619 225.274ZM73.985 225.342L73.5484 227.818L76.5028 228.339L76.9394 225.863L73.985 225.342ZM75.2861 226.601L65.2142 224.825L64.6932 227.78L74.7651 229.556L75.2861 226.601ZM65.2142 224.825C63.6944 224.558 62.2351 224.712 61.0054 225.508L62.6369 228.026C63.0519 227.757 63.681 227.601 64.6932 227.78L65.2142 224.825ZM61.0116 225.504C59.765 226.304 59.0571 227.547 58.7965 229.025L61.751 229.546C61.8949 228.729 62.2186 228.294 62.6307 228.03L61.0116 225.504ZM58.7965 229.025C58.6183 230.036 58.671 231.031 58.9945 231.98L61.8338 231.011C61.6914 230.594 61.6505 230.116 61.751 229.546L58.7965 229.025ZM58.9968 231.986C59.33 232.948 59.9208 233.754 60.7239 234.392L62.5907 232.044C62.2046 231.737 61.9666 231.394 61.8315 231.004L58.9968 231.986ZM60.7239 234.392C61.5575 235.055 62.5724 235.454 63.6945 235.652L64.2155 232.698C63.4631 232.565 62.9463 232.327 62.5907 232.044L60.7239 234.392Z" fill="#AE91FD" mask="url(#path-11-outside-6_14_20)"/>
<mask id="path-13-outside-7_14_20" maskUnits="userSpaceOnUse" x="76.5014" y="150.43" width="32.8827" height="29.9545" fill="black">
<rect fill="white" x="76.5014" y="150.43" width="32.8827" height="29.9545"/>
<path d="M103.375 171.293C102.768 172.345 102.11 173.171 101.403 173.771C100.702 174.375 99.9869 174.803 99.259 175.056C98.5409 175.305 97.8505 175.436 97.188 175.447L96.9716 173.009C97.3435 172.961 97.7826 172.883 98.2887 172.773C98.801 172.667 99.3311 172.424 99.879 172.043C100.437 171.66 100.962 171.04 101.456 170.185C102.116 169.041 102.385 167.937 102.261 166.874C102.137 165.81 101.484 164.937 100.303 164.255L97.4249 162.593L97.3184 162.778C97.4844 163.087 97.6728 163.499 97.8837 164.014C98.092 164.52 98.1858 165.132 98.1649 165.85C98.1415 166.558 97.8635 167.373 97.3308 168.296C96.6703 169.44 95.8066 170.311 94.7398 170.909C93.6765 171.5 92.4755 171.762 91.1368 171.695C89.8016 171.621 88.3959 171.158 86.9198 170.306C85.4682 169.468 84.3516 168.483 83.5699 167.351C82.7822 166.215 82.3558 165.022 82.2909 163.771C82.2199 162.516 82.5288 161.292 83.2177 160.099C83.7504 159.176 84.3267 158.533 84.9468 158.169C85.5642 157.796 86.1501 157.576 86.7045 157.511C87.2563 157.436 87.7014 157.389 88.0398 157.371L88.1676 157.15L85.9164 155.85L87.1309 153.747L101.708 162.163C102.926 162.866 103.757 163.715 104.2 164.709C104.652 165.7 104.789 166.763 104.61 167.898C104.44 169.03 104.028 170.162 103.375 171.293ZM95.5453 166.871C96.0496 165.998 96.2758 165.145 96.224 164.311C96.1723 163.477 95.8617 162.687 95.2924 161.94C94.7232 161.193 93.9157 160.518 92.8701 159.914C91.8491 159.325 90.8592 158.958 89.9005 158.815C88.9418 158.671 88.067 158.773 87.2761 159.12C86.4853 159.467 85.8342 160.084 85.3228 160.969C84.7901 161.892 84.58 162.796 84.6923 163.681C84.8082 164.56 85.171 165.38 85.7808 166.142C86.394 166.898 87.1804 167.553 88.14 168.107C89.1241 168.675 90.0832 169.024 91.0173 169.153C91.9488 169.273 92.8056 169.152 93.5877 168.792C94.3672 168.422 95.0198 167.782 95.5453 166.871Z"/>
</mask>
<path d="M103.375 171.293C102.768 172.345 102.11 173.171 101.403 173.771C100.702 174.375 99.9869 174.803 99.259 175.056C98.5409 175.305 97.8505 175.436 97.188 175.447L96.9716 173.009C97.3435 172.961 97.7826 172.883 98.2887 172.773C98.801 172.667 99.3311 172.424 99.879 172.043C100.437 171.66 100.962 171.04 101.456 170.185C102.116 169.041 102.385 167.937 102.261 166.874C102.137 165.81 101.484 164.937 100.303 164.255L97.4249 162.593L97.3184 162.778C97.4844 163.087 97.6728 163.499 97.8837 164.014C98.092 164.52 98.1858 165.132 98.1649 165.85C98.1415 166.558 97.8635 167.373 97.3308 168.296C96.6703 169.44 95.8066 170.311 94.7398 170.909C93.6765 171.5 92.4755 171.762 91.1368 171.695C89.8016 171.621 88.3959 171.158 86.9198 170.306C85.4682 169.468 84.3516 168.483 83.5699 167.351C82.7822 166.215 82.3558 165.022 82.2909 163.771C82.2199 162.516 82.5288 161.292 83.2177 160.099C83.7504 159.176 84.3267 158.533 84.9468 158.169C85.5642 157.796 86.1501 157.576 86.7045 157.511C87.2563 157.436 87.7014 157.389 88.0398 157.371L88.1676 157.15L85.9164 155.85L87.1309 153.747L101.708 162.163C102.926 162.866 103.757 163.715 104.2 164.709C104.652 165.7 104.789 166.763 104.61 167.898C104.44 169.03 104.028 170.162 103.375 171.293ZM95.5453 166.871C96.0496 165.998 96.2758 165.145 96.224 164.311C96.1723 163.477 95.8617 162.687 95.2924 161.94C94.7232 161.193 93.9157 160.518 92.8701 159.914C91.8491 159.325 90.8592 158.958 89.9005 158.815C88.9418 158.671 88.067 158.773 87.2761 159.12C86.4853 159.467 85.8342 160.084 85.3228 160.969C84.7901 161.892 84.58 162.796 84.6923 163.681C84.8082 164.56 85.171 165.38 85.7808 166.142C86.394 166.898 87.1804 167.553 88.14 168.107C89.1241 168.675 90.0832 169.024 91.0173 169.153C91.9488 169.273 92.8056 169.152 93.5877 168.792C94.3672 168.422 95.0198 167.782 95.5453 166.871Z" fill="#AE91FD"/>
<path d="M101.403 173.771L100.432 172.628L100.424 172.635L101.403 173.771ZM99.259 175.056L98.7679 173.638L98.7666 173.639L99.259 175.056ZM97.188 175.447L95.6939 175.579L95.8173 176.97L97.2132 176.947L97.188 175.447ZM96.9716 173.009L96.7809 171.521L95.3498 171.705L95.4774 173.142L96.9716 173.009ZM98.2887 172.773L97.9846 171.304L97.9712 171.307L98.2887 172.773ZM99.879 172.043L99.0291 170.807L99.0229 170.811L99.879 172.043ZM102.261 166.874L103.751 166.7L103.751 166.7L102.261 166.874ZM97.4249 162.593L98.1749 161.294L96.8759 160.544L96.1259 161.843L97.4249 162.593ZM97.3184 162.778L96.0194 162.028L95.6016 162.751L95.9969 163.487L97.3184 162.778ZM97.8837 164.014L96.4955 164.582L96.4968 164.586L97.8837 164.014ZM98.1649 165.85L99.6641 165.899L99.6643 165.893L98.1649 165.85ZM94.7398 170.909L95.4692 172.219L95.4731 172.217L94.7398 170.909ZM91.1368 171.695L91.054 173.192L91.0611 173.193L91.1368 171.695ZM83.5699 167.351L84.8043 166.498L84.8024 166.496L83.5699 167.351ZM82.2909 163.771L83.7889 163.693L83.7885 163.686L82.2909 163.771ZM84.9468 158.169L85.7057 159.463L85.7144 159.458L85.723 159.453L84.9468 158.169ZM86.7045 157.511L86.8802 159.001L86.8935 158.999L86.9067 158.997L86.7045 157.511ZM88.0398 157.371L88.1189 158.869L88.9318 158.826L89.3388 158.121L88.0398 157.371ZM88.1676 157.15L89.4666 157.9L90.2166 156.601L88.9176 155.851L88.1676 157.15ZM85.9164 155.85L84.6174 155.1L83.8674 156.399L85.1664 157.149L85.9164 155.85ZM87.1309 153.747L87.8809 152.448L86.5819 151.698L85.8319 152.997L87.1309 153.747ZM104.2 164.709L102.83 165.319L102.835 165.332L104.2 164.709ZM104.61 167.898L103.128 167.663L103.126 167.675L104.61 167.898ZM96.224 164.311L94.7269 164.404L94.7269 164.404L96.224 164.311ZM95.2924 161.94L96.4854 161.031L96.4854 161.031L95.2924 161.94ZM89.9005 158.815L90.1225 157.331L90.1225 157.331L89.9005 158.815ZM87.2761 159.12L87.879 160.494L87.879 160.494L87.2761 159.12ZM84.6923 163.681L83.2042 163.87L83.2052 163.877L84.6923 163.681ZM85.7808 166.142L84.6095 167.079L84.6159 167.087L85.7808 166.142ZM91.0173 169.153L90.8117 170.639L90.819 170.64L90.8263 170.641L91.0173 169.153ZM93.5877 168.792L94.2154 170.154L94.2232 170.151L94.231 170.147L93.5877 168.792ZM102.076 170.543C101.529 171.49 100.975 172.167 100.432 172.628L102.373 174.915C103.246 174.175 104.006 173.201 104.674 172.043L102.076 170.543ZM100.424 172.635C99.838 173.139 99.285 173.459 98.7679 173.638L99.7502 176.473C100.689 176.148 101.565 175.611 102.382 174.908L100.424 172.635ZM98.7666 173.639C98.177 173.844 97.6446 173.939 97.1628 173.947L97.2132 176.947C98.0564 176.932 98.9047 176.767 99.7515 176.472L98.7666 173.639ZM98.6821 175.314L98.4657 172.876L95.4774 173.142L95.6939 175.579L98.6821 175.314ZM97.1623 174.497C97.5893 174.442 98.0727 174.355 98.6062 174.239L97.9712 171.307C97.4925 171.411 97.0977 171.481 96.7809 171.521L97.1623 174.497ZM98.5929 174.242C99.3497 174.085 100.065 173.74 100.735 173.275L99.0229 170.811C98.5972 171.107 98.2524 171.249 97.9846 171.304L98.5929 174.242ZM100.729 173.279C101.535 172.725 102.197 171.902 102.755 170.935L100.157 169.435C99.7275 170.179 99.3381 170.594 99.0291 170.807L100.729 173.279ZM102.755 170.935C103.538 169.578 103.92 168.153 103.751 166.7L100.771 167.047C100.849 167.722 100.694 168.504 100.157 169.435L102.755 170.935ZM103.751 166.7C103.557 165.039 102.521 163.803 101.053 162.956L99.5535 165.554C100.448 166.07 100.716 166.58 100.771 167.047L103.751 166.7ZM101.053 162.956L98.1749 161.294L96.6749 163.892L99.5535 165.554L101.053 162.956ZM96.1259 161.843L96.0194 162.028L98.6174 163.528L98.724 163.343L96.1259 161.843ZM95.9969 163.487C96.1282 163.732 96.2943 164.091 96.4955 164.582L99.272 163.446C99.0514 162.907 98.8405 162.442 98.6398 162.068L95.9969 163.487ZM96.4968 164.586C96.6039 164.846 96.6821 165.236 96.6656 165.806L99.6643 165.893C99.6894 165.028 99.5801 164.194 99.2707 163.443L96.4968 164.586ZM96.6658 165.8C96.6536 166.169 96.4982 166.738 96.0318 167.546L98.6299 169.046C99.2287 168.009 99.6295 166.947 99.6641 165.899L96.6658 165.8ZM96.0318 167.546C95.495 168.476 94.8192 169.145 94.0065 169.6L95.4731 172.217C96.7941 171.477 97.8456 170.404 98.6299 169.046L96.0318 167.546ZM94.0104 169.598C93.2172 170.039 92.3001 170.252 91.2125 170.197L91.0611 173.193C92.651 173.273 94.1358 172.961 95.4692 172.219L94.0104 169.598ZM91.2196 170.197C90.1749 170.139 88.9966 169.773 87.6698 169.007L86.1698 171.605C87.7953 172.543 89.4284 173.103 91.054 173.192L91.2196 170.197ZM87.6698 169.007C86.3695 168.256 85.435 167.412 84.8043 166.498L82.3356 168.203C83.2681 169.553 84.5669 170.679 86.1698 171.605L87.6698 169.007ZM84.8024 166.496C84.1568 165.565 83.8379 164.637 83.7889 163.693L80.7929 163.848C80.8738 165.406 81.4075 166.865 82.3375 168.206L84.8024 166.496ZM83.7885 163.686C83.7356 162.751 83.9593 161.814 84.5167 160.849L81.9187 159.349C81.0983 160.769 80.7042 162.281 80.7933 163.855L83.7885 163.686ZM84.5167 160.849C84.9777 160.05 85.3923 159.647 85.7057 159.463L84.1878 156.875C83.2611 157.419 82.5231 158.302 81.9187 159.349L84.5167 160.849ZM85.723 159.453C86.2087 159.159 86.591 159.035 86.8802 159.001L86.5289 156.021C85.7093 156.118 84.9197 156.432 84.1705 156.886L85.723 159.453ZM86.9067 158.997C87.44 158.925 87.8393 158.884 88.1189 158.869L87.9606 155.874C87.5635 155.895 87.0726 155.947 86.5023 156.025L86.9067 158.997ZM89.3388 158.121L89.4666 157.9L86.8686 156.4L86.7407 156.621L89.3388 158.121ZM88.9176 155.851L86.6664 154.551L85.1664 157.149L87.4176 158.449L88.9176 155.851ZM87.2155 156.6L88.43 154.497L85.8319 152.997L84.6174 155.1L87.2155 156.6ZM86.3809 155.046L100.958 163.462L102.458 160.864L87.8809 152.448L86.3809 155.046ZM100.958 163.462C101.982 164.053 102.549 164.689 102.83 165.319L105.57 164.098C104.965 162.74 103.87 161.679 102.458 160.864L100.958 163.462ZM102.835 165.332C103.159 166.04 103.264 166.803 103.128 167.663L106.091 168.132C106.314 166.723 106.146 165.36 105.564 164.085L102.835 165.332ZM103.126 167.675C102.988 168.597 102.648 169.552 102.076 170.543L104.674 172.043C105.408 170.772 105.892 169.462 106.093 168.12L103.126 167.675ZM96.8444 167.621C97.4651 166.546 97.7947 165.402 97.7212 164.218L94.7269 164.404C94.7569 164.887 94.6341 165.45 94.2463 166.121L96.8444 167.621ZM97.7212 164.218C97.6487 163.052 97.2114 161.983 96.4854 161.031L94.0994 162.849C94.512 163.391 94.6958 163.902 94.7269 164.404L97.7212 164.218ZM96.4854 161.031C95.7667 160.088 94.7907 159.291 93.6201 158.615L92.1201 161.213C93.0407 161.745 93.6796 162.299 94.0994 162.849L96.4854 161.031ZM93.6201 158.615C92.4704 157.951 91.3026 157.508 90.1225 157.331L89.6785 160.298C90.4157 160.409 91.2277 160.698 92.1201 161.213L93.6201 158.615ZM90.1225 157.331C88.9192 157.151 87.7541 157.272 86.6733 157.747L87.879 160.494C88.3799 160.274 88.9643 160.191 89.6785 160.298L90.1225 157.331ZM86.6733 157.747C85.5389 158.245 84.6646 159.11 84.0238 160.219L86.6218 161.719C87.0038 161.058 87.4317 160.69 87.879 160.494L86.6733 157.747ZM84.0238 160.219C83.36 161.369 83.043 162.6 83.2042 163.87L86.1804 163.492C86.1169 162.992 86.2202 162.415 86.6218 161.719L84.0238 160.219ZM83.2052 163.877C83.3604 165.054 83.8467 166.126 84.6095 167.079L86.952 165.205C86.4953 164.634 86.256 164.065 86.1794 163.485L83.2052 163.877ZM84.6159 167.087C85.3595 168.004 86.2934 168.773 87.39 169.406L88.89 166.808C88.0675 166.333 87.4286 165.792 86.9456 165.197L84.6159 167.087ZM87.39 169.406C88.5082 170.052 89.6508 170.478 90.8117 170.639L91.2229 167.667C90.5156 167.569 89.7399 167.299 88.89 166.808L87.39 169.406ZM90.8263 170.641C92.0108 170.793 93.1546 170.643 94.2154 170.154L92.96 167.43C92.4566 167.662 91.8867 167.752 91.2082 167.665L90.8263 170.641ZM94.231 170.147C95.3405 169.62 96.2003 168.737 96.8444 167.621L94.2463 166.121C93.8392 166.826 93.394 167.224 92.9444 167.437L94.231 170.147Z" fill="#AE91FD" mask="url(#path-13-outside-7_14_20)"/>
<mask id="path-15-outside-8_14_20" maskUnits="userSpaceOnUse" x="127.321" y="103.072" width="14.4581" height="13.7186" fill="black">
<rect fill="white" x="127.321" y="103.072" width="14.4581" height="13.7186"/>
<path d="M137.447 106.161L138.953 107.957L131.641 114.092L130.135 112.297L137.447 106.161Z"/>
</mask>
<path d="M137.447 106.161L138.953 107.957L131.641 114.092L130.135 112.297L137.447 106.161Z" fill="#AE91FD"/>
<path d="M137.447 106.161L138.596 105.197L137.632 104.048L136.483 105.012L137.447 106.161ZM138.953 107.957L139.918 109.106L141.067 108.142L140.102 106.993L138.953 107.957ZM131.641 114.092L130.492 115.057L131.456 116.206L132.605 115.242L131.641 114.092ZM130.135 112.297L129.17 111.148L128.021 112.112L128.986 113.261L130.135 112.297ZM136.298 107.126L137.804 108.921L140.102 106.993L138.596 105.197L136.298 107.126ZM137.989 106.808L130.677 112.943L132.605 115.242L139.918 109.106L137.989 106.808ZM132.79 113.128L131.284 111.333L128.986 113.261L130.492 115.057L132.79 113.128ZM131.099 113.446L138.411 107.31L136.483 105.012L129.17 111.148L131.099 113.446Z" fill="#AE91FD" mask="url(#path-15-outside-8_14_20)"/>
<mask id="path-17-outside-9_14_20" maskUnits="userSpaceOnUse" x="184.241" y="62.9351" width="23.1572" height="25.5479" fill="black">
<rect fill="white" x="184.241" y="62.9351" width="23.1572" height="25.5479"/>
<path d="M200.13 69.6717L198.226 71.0448C197.964 70.7397 197.642 70.4676 197.26 70.2287C196.883 69.9806 196.434 69.8266 195.913 69.7667C195.393 69.7068 194.788 69.8019 194.101 70.0521C193.16 70.3946 192.455 70.8969 191.985 71.5591C191.52 72.2121 191.408 72.869 191.648 73.5297C191.862 74.117 192.244 74.5031 192.795 74.6881C193.346 74.873 194.117 74.9137 195.107 74.8102L197.594 74.5401C199.09 74.3734 200.3 74.5111 201.225 74.9532C202.147 75.3886 202.803 76.1435 203.194 77.218C203.515 78.099 203.548 78.9788 203.293 79.8575C203.045 80.7338 202.544 81.5361 201.788 82.2645C201.033 82.9929 200.058 83.5744 198.864 84.0093C197.295 84.5801 195.873 84.7122 194.598 84.4055C193.322 84.0989 192.309 83.3413 191.56 82.1328L193.598 80.756C194.113 81.5058 194.743 81.9796 195.487 82.1772C196.238 82.3723 197.098 82.2938 198.066 81.9416C199.167 81.5408 199.956 80.989 200.433 80.2862C200.915 79.5742 201.036 78.8879 200.795 78.2272C200.601 77.6933 200.251 77.3142 199.746 77.0898C199.239 76.8588 198.565 76.794 197.726 76.8956L194.944 77.2277C193.415 77.4066 192.192 77.2659 191.276 76.8056C190.364 76.3362 189.716 75.5709 189.329 74.5098C189.014 73.6422 188.978 72.786 189.222 71.9413C189.473 71.0941 189.953 70.3261 190.662 69.6372C191.378 68.9458 192.277 68.4034 193.358 68.0099C194.879 67.456 196.196 67.3549 197.306 67.7065C198.423 68.0557 199.365 68.7108 200.13 69.6717Z"/>
</mask>
<path d="M200.13 69.6717L198.226 71.0448C197.964 70.7397 197.642 70.4676 197.26 70.2287C196.883 69.9806 196.434 69.8266 195.913 69.7667C195.393 69.7068 194.788 69.8019 194.101 70.0521C193.16 70.3946 192.455 70.8969 191.985 71.5591C191.52 72.2121 191.408 72.869 191.648 73.5297C191.862 74.117 192.244 74.5031 192.795 74.6881C193.346 74.873 194.117 74.9137 195.107 74.8102L197.594 74.5401C199.09 74.3734 200.3 74.5111 201.225 74.9532C202.147 75.3886 202.803 76.1435 203.194 77.218C203.515 78.099 203.548 78.9788 203.293 79.8575C203.045 80.7338 202.544 81.5361 201.788 82.2645C201.033 82.9929 200.058 83.5744 198.864 84.0093C197.295 84.5801 195.873 84.7122 194.598 84.4055C193.322 84.0989 192.309 83.3413 191.56 82.1328L193.598 80.756C194.113 81.5058 194.743 81.9796 195.487 82.1772C196.238 82.3723 197.098 82.2938 198.066 81.9416C199.167 81.5408 199.956 80.989 200.433 80.2862C200.915 79.5742 201.036 78.8879 200.795 78.2272C200.601 77.6933 200.251 77.3142 199.746 77.0898C199.239 76.8588 198.565 76.794 197.726 76.8956L194.944 77.2277C193.415 77.4066 192.192 77.2659 191.276 76.8056C190.364 76.3362 189.716 75.5709 189.329 74.5098C189.014 73.6422 188.978 72.786 189.222 71.9413C189.473 71.0941 189.953 70.3261 190.662 69.6372C191.378 68.9458 192.277 68.4034 193.358 68.0099C194.879 67.456 196.196 67.3549 197.306 67.7065C198.423 68.0557 199.365 68.7108 200.13 69.6717Z" fill="#AE91FD"/>
<path d="M200.13 69.6717L201.007 70.8883L202.284 69.9678L201.303 68.7371L200.13 69.6717ZM198.226 71.0448L197.089 72.0225L197.987 73.0673L199.104 72.2614L198.226 71.0448ZM197.26 70.2287L196.437 71.4822L196.45 71.4913L196.464 71.5001L197.26 70.2287ZM195.913 69.7667L196.085 68.2765L196.085 68.2765L195.913 69.7667ZM191.985 71.5591L193.207 72.4294L193.209 72.4267L191.985 71.5591ZM192.795 74.6881L192.318 76.1101L192.318 76.1101L192.795 74.6881ZM195.107 74.8102L195.263 76.3021L195.269 76.3015L195.107 74.8102ZM197.594 74.5401L197.756 76.0313L197.76 76.0309L197.594 74.5401ZM201.225 74.9532L200.577 76.3064L200.584 76.3095L201.225 74.9532ZM203.293 79.8575L201.852 79.4401L201.85 79.4492L203.293 79.8575ZM194.598 84.4055L194.948 82.9471L194.948 82.9471L194.598 84.4055ZM191.56 82.1328L190.72 80.8898L189.524 81.6974L190.285 82.9236L191.56 82.1328ZM193.598 80.756L194.835 79.907L193.992 78.6797L192.759 79.513L193.598 80.756ZM195.487 82.1772L195.102 83.627L195.11 83.629L195.487 82.1772ZM200.433 80.2862L201.674 81.1289L201.676 81.1266L200.433 80.2862ZM199.746 77.0898L199.125 78.455L199.137 78.4606L199.746 77.0898ZM197.726 76.8956L197.903 78.385L197.906 78.3848L197.726 76.8956ZM194.944 77.2277L195.118 78.7176L195.122 78.7172L194.944 77.2277ZM191.276 76.8056L190.589 78.1392L190.596 78.1425L190.602 78.1458L191.276 76.8056ZM189.222 71.9413L187.784 71.5152L187.781 71.5246L189.222 71.9413ZM190.662 69.6372L189.62 68.5582L189.617 68.5613L190.662 69.6372ZM197.306 67.7065L196.853 69.1366L196.859 69.1382L197.306 67.7065ZM199.253 68.4551L197.349 69.8283L199.104 72.2614L201.007 70.8883L199.253 68.4551ZM199.364 70.0672C198.992 69.6347 198.551 69.2669 198.056 68.9572L196.464 71.5001C196.733 71.6683 196.936 71.8447 197.089 72.0225L199.364 70.0672ZM198.084 68.9751C197.482 68.5791 196.801 68.359 196.085 68.2765L195.742 71.2569C196.067 71.2943 196.284 71.3821 196.437 71.4822L198.084 68.9751ZM196.085 68.2765C195.26 68.1816 194.413 68.3424 193.588 68.6426L194.614 71.4617C195.164 71.2614 195.525 71.232 195.742 71.2569L196.085 68.2765ZM193.588 68.6426C192.428 69.0647 191.445 69.7278 190.762 70.6915L193.209 72.4267C193.465 72.066 193.892 71.7245 194.614 71.4617L193.588 68.6426ZM190.764 70.6888C190.059 71.6784 189.804 72.8474 190.239 74.0428L193.058 73.0167C193.012 72.8907 192.982 72.7458 193.207 72.4294L190.764 70.6888ZM190.239 74.0428C190.595 75.0221 191.298 75.7678 192.318 76.1101L193.273 73.266C193.191 73.2385 193.129 73.212 193.058 73.0167L190.239 74.0428ZM192.318 76.1101C193.169 76.3956 194.191 76.4142 195.263 76.3021L194.951 73.3184C194.044 73.4132 193.524 73.3503 193.273 73.266L192.318 76.1101ZM195.269 76.3015L197.756 76.0313L197.432 73.0489L194.945 73.319L195.269 76.3015ZM197.76 76.0309C199.1 75.8815 199.998 76.0293 200.577 76.3063L201.872 73.6C200.603 72.9928 199.08 72.8653 197.428 73.0493L197.76 76.0309ZM200.584 76.3095C201.104 76.5549 201.511 76.9787 201.785 77.7311L204.604 76.705C204.095 75.3083 203.189 74.2222 201.865 73.5968L200.584 76.3095ZM201.785 77.7311C201.999 78.321 202.016 78.875 201.852 79.4401L204.734 80.275C205.079 79.0826 205.03 77.877 204.604 76.705L201.785 77.7311ZM201.85 79.4492C201.685 80.0333 201.341 80.6123 200.747 81.1848L202.83 83.3442C203.747 82.46 204.406 81.4343 204.736 80.2659L201.85 79.4492ZM200.747 81.1848C200.171 81.74 199.389 82.2218 198.351 82.5997L199.377 85.4188C200.728 84.9271 201.895 84.2457 202.83 83.3442L200.747 81.1848ZM198.351 82.5997C196.984 83.0971 195.869 83.1683 194.948 82.9471L194.247 85.864C195.878 86.2561 197.606 86.0631 199.377 85.4188L198.351 82.5997ZM194.948 82.9471C194.091 82.7409 193.395 82.2461 192.834 81.342L190.285 82.9236C191.224 84.4365 192.554 85.4568 194.247 85.864L194.948 82.9471ZM192.399 83.3758L194.438 81.999L192.759 79.513L190.72 80.8898L192.399 83.3758ZM192.362 81.605C193.041 82.5943 193.951 83.3213 195.102 83.627L195.872 80.7273C195.535 80.6378 195.185 80.4174 194.835 79.907L192.362 81.605ZM195.11 83.629C196.238 83.9219 197.417 83.7738 198.579 83.3511L197.553 80.532C196.779 80.8138 196.239 80.8227 195.864 80.7253L195.11 83.629ZM198.579 83.3511C199.866 82.8825 200.964 82.1748 201.674 81.1289L199.193 79.4434C198.948 79.8032 198.467 80.1991 197.553 80.532L198.579 83.3511ZM201.676 81.1266C202.36 80.116 202.647 78.929 202.205 77.7142L199.386 78.7402C199.424 78.8469 199.471 79.0325 199.191 79.4457L201.676 81.1266ZM202.205 77.7142C201.875 76.8098 201.244 76.114 200.355 75.719L199.137 78.4606C199.258 78.5143 199.326 78.5768 199.386 78.7402L202.205 77.7142ZM200.368 75.7247C199.512 75.3349 198.528 75.2876 197.545 75.4065L197.906 78.3848C198.603 78.3004 198.966 78.3826 199.125 78.4549L200.368 75.7247ZM197.548 75.4062L194.766 75.7383L195.122 78.7172L197.903 78.385L197.548 75.4062ZM194.77 75.7379C193.394 75.8987 192.503 75.7433 191.95 75.4654L190.602 78.1458C191.881 78.7884 193.435 78.9145 195.118 78.7176L194.77 75.7379ZM191.963 75.472C191.422 75.1936 191.01 74.7422 190.739 73.9967L187.92 75.0228C188.421 76.3996 189.307 77.4788 190.589 78.1392L191.963 75.472ZM190.739 73.9967C190.526 73.412 190.512 72.8814 190.663 72.358L187.781 71.5246C187.444 72.6906 187.501 73.8723 187.92 75.0228L190.739 73.9967ZM190.66 72.3673C190.83 71.7952 191.161 71.2444 191.707 70.7131L189.617 68.5613C188.746 69.4078 188.116 70.393 187.784 71.5152L190.66 72.3673ZM191.704 70.7161C192.247 70.1919 192.957 69.7522 193.871 69.4194L192.845 66.6003C191.597 67.0546 190.509 67.6998 189.62 68.5582L191.704 70.7161ZM193.871 69.4194C195.201 68.9354 196.161 68.9173 196.853 69.1366L197.759 66.2765C196.23 65.7926 194.558 65.9767 192.845 66.6003L193.871 69.4194ZM196.859 69.1382C197.675 69.3934 198.368 69.8676 198.957 70.6063L201.303 68.7371C200.361 67.554 199.172 66.718 197.754 66.2748L196.859 69.1382Z" fill="#AE91FD" mask="url(#path-17-outside-9_14_20)"/>
<mask id="path-19-outside-10_14_20" maskUnits="userSpaceOnUse" x="260.025" y="50" width="13" height="24" fill="black">
<rect fill="white" x="260.025" y="50" width="13" height="24"/>
<path d="M270.066 55.6364V57.767L261.586 57.767V55.6364L270.066 55.6364ZM264.058 51.7159H266.572V67.3125C266.572 68.0227 266.675 68.5554 266.881 68.9105C267.094 69.2585 267.364 69.4929 267.691 69.6136C268.024 69.7273 268.376 69.7841 268.745 69.7841C269.022 69.7841 269.249 69.7699 269.427 69.7415C269.605 69.706 269.747 69.6776 269.853 69.6562L270.365 71.9148C270.194 71.9787 269.956 72.0426 269.651 72.1065C269.345 72.1776 268.958 72.2131 268.49 72.2131C267.779 72.2131 267.083 72.0604 266.401 71.755C265.727 71.4496 265.166 70.9844 264.718 70.3594C264.278 69.7344 264.058 68.946 264.058 67.9943V51.7159Z"/>
</mask>
<path d="M270.066 55.6364V57.767L261.586 57.767V55.6364L270.066 55.6364ZM264.058 51.7159H266.572V67.3125C266.572 68.0227 266.675 68.5554 266.881 68.9105C267.094 69.2585 267.364 69.4929 267.691 69.6136C268.024 69.7273 268.376 69.7841 268.745 69.7841C269.022 69.7841 269.249 69.7699 269.427 69.7415C269.605 69.706 269.747 69.6776 269.853 69.6562L270.365 71.9148C270.194 71.9787 269.956 72.0426 269.651 72.1065C269.345 72.1776 268.958 72.2131 268.49 72.2131C267.779 72.2131 267.083 72.0604 266.401 71.755C265.727 71.4496 265.166 70.9844 264.718 70.3594C264.278 69.7344 264.058 68.946 264.058 67.9943V51.7159Z" fill="#AE91FD"/>
<path d="M270.066 55.6364H271.566V54.1364H270.066V55.6364ZM270.066 57.767V59.267H271.566V57.767H270.066ZM261.586 57.767H260.086V59.267H261.586V57.767ZM261.586 55.6364V54.1364H260.086V55.6364H261.586ZM264.058 51.7159V50.2159H262.558V51.7159H264.058ZM266.572 51.7159H268.072V50.2159H266.572V51.7159ZM266.881 68.9105L265.583 69.6631L265.592 69.6785L265.602 69.6937L266.881 68.9105ZM267.691 69.6136L267.171 71.0206L267.189 71.0274L267.207 71.0336L267.691 69.6136ZM269.427 69.7415L269.664 71.2226L269.693 71.218L269.721 71.2123L269.427 69.7415ZM269.853 69.6562L271.316 69.325L270.993 67.8985L269.559 68.1854L269.853 69.6562ZM270.365 71.9148L270.891 73.3193L272.116 72.8598L271.827 71.5835L270.365 71.9148ZM269.651 72.1065L269.343 70.6383L269.327 70.6418L269.311 70.6455L269.651 72.1065ZM266.401 71.755L265.783 73.1215L265.788 73.1239L266.401 71.755ZM264.718 70.3594L263.492 71.2233L263.499 71.2325L264.718 70.3594ZM268.566 55.6364V57.767H271.566V55.6364H268.566ZM270.066 56.267L261.586 56.267V59.267L270.066 59.267V56.267ZM263.086 57.767V55.6364H260.086V57.767H263.086ZM261.586 57.1364L270.066 57.1364V54.1364L261.586 54.1364V57.1364ZM264.058 53.2159H266.572V50.2159H264.058V53.2159ZM265.072 51.7159V67.3125H268.072V51.7159H265.072ZM265.072 67.3125C265.072 68.1186 265.18 68.9679 265.583 69.6631L268.178 68.1579C268.182 68.1636 268.151 68.1114 268.122 67.9599C268.093 67.811 268.072 67.5995 268.072 67.3125H265.072ZM265.602 69.6937C265.959 70.2777 266.476 70.7638 267.171 71.0206L268.21 68.2066C268.214 68.2081 268.219 68.2103 268.223 68.2128C268.228 68.2154 268.229 68.2166 268.227 68.2148C268.223 68.2113 268.198 68.1886 268.16 68.1273L265.602 69.6937ZM267.207 71.0336C267.704 71.2027 268.219 71.2841 268.745 71.2841V68.2841C268.532 68.2841 268.345 68.2518 268.174 68.1937L267.207 71.0336ZM268.745 71.2841C269.064 71.2841 269.378 71.2684 269.664 71.2226L269.19 68.2603C269.121 68.2714 268.98 68.2841 268.745 68.2841V71.2841ZM269.721 71.2123C269.899 71.1768 270.041 71.1484 270.147 71.1271L269.559 68.1854C269.452 68.2067 269.31 68.2351 269.133 68.2706L269.721 71.2123ZM268.39 69.9875L268.902 72.246L271.827 71.5835L271.316 69.325L268.39 69.9875ZM269.838 70.5103C269.772 70.5351 269.619 70.5807 269.343 70.6383L269.958 73.5747C270.293 73.5045 270.617 73.4222 270.891 73.3193L269.838 70.5103ZM269.311 70.6455C269.157 70.6813 268.894 70.7131 268.49 70.7131V73.7131C269.022 73.7131 269.534 73.6738 269.991 73.5675L269.311 70.6455ZM268.49 70.7131C268.002 70.7131 267.514 70.6096 267.015 70.386L265.788 73.1239C266.653 73.5111 267.557 73.7131 268.49 73.7131V70.7131ZM267.02 70.3884C266.595 70.196 266.238 69.9052 265.938 69.4862L263.499 71.2325C264.093 72.0635 264.859 72.7031 265.783 73.1215L267.02 70.3884ZM265.944 69.4954C265.722 69.1793 265.558 68.7131 265.558 67.9943H262.558C262.558 69.1789 262.834 70.2894 263.492 71.2233L265.944 69.4954ZM265.558 67.9943V51.7159H262.558V67.9943H265.558Z" fill="#AE91FD" mask="url(#path-19-outside-10_14_20)"/>
<mask id="path-21-outside-11_14_20" maskUnits="userSpaceOnUse" x="322.305" y="63.7666" width="22.8152" height="24.6082" fill="black">
<rect fill="white" x="322.305" y="63.7666" width="22.8152" height="24.6082"/>
<path d="M337.168 78.722L340.476 69.6321L342.839 70.492L337.242 85.8688L334.88 85.0089L335.827 82.406L335.667 82.3477C335.022 82.9974 334.22 83.4574 333.26 83.7278C332.302 83.9914 331.243 83.9119 330.082 83.4893C329.121 83.1395 328.343 82.6183 327.748 81.9258C327.156 81.2266 326.802 80.3721 326.686 79.3624C326.572 78.346 326.753 77.1838 327.23 75.8757L330.786 66.105L333.148 66.9649L329.65 76.5754C329.242 77.6966 329.231 78.7051 329.615 79.6008C330.006 80.499 330.692 81.1266 331.673 81.4837C332.261 81.6975 332.913 81.7647 333.629 81.6854C334.352 81.6086 335.034 81.3351 335.674 80.865C336.32 80.3974 336.818 79.6831 337.168 78.722Z"/>
</mask>
<path d="M337.168 78.722L340.476 69.6321L342.839 70.492L337.242 85.8688L334.88 85.0089L335.827 82.406L335.667 82.3477C335.022 82.9974 334.22 83.4574 333.26 83.7278C332.302 83.9914 331.243 83.9119 330.082 83.4893C329.121 83.1395 328.343 82.6183 327.748 81.9258C327.156 81.2266 326.802 80.3721 326.686 79.3624C326.572 78.346 326.753 77.1838 327.23 75.8757L330.786 66.105L333.148 66.9649L329.65 76.5754C329.242 77.6966 329.231 78.7051 329.615 79.6008C330.006 80.499 330.692 81.1266 331.673 81.4837C332.261 81.6975 332.913 81.7647 333.629 81.6854C334.352 81.6086 335.034 81.3351 335.674 80.865C336.32 80.3974 336.818 79.6831 337.168 78.722Z" fill="#AE91FD"/>
<path d="M340.476 69.6321L340.989 68.2225L339.58 67.7095L339.067 69.119L340.476 69.6321ZM342.839 70.492L344.248 71.005L344.762 69.5955L343.352 69.0824L342.839 70.492ZM337.242 85.8688L336.729 87.2783L338.139 87.7913L338.652 86.3818L337.242 85.8688ZM334.88 85.0089L333.47 84.4958L332.957 85.9054L334.367 86.4184L334.88 85.0089ZM335.827 82.406L337.237 82.9191L337.75 81.5095L336.34 80.9965L335.827 82.406ZM335.667 82.3477L336.18 80.9382L335.278 80.6099L334.602 81.2912L335.667 82.3477ZM333.26 83.7278L333.658 85.174L333.667 85.1716L333.26 83.7278ZM327.748 81.9258L326.604 82.8951L326.61 82.9028L327.748 81.9258ZM326.686 79.3624L325.195 79.5293L325.196 79.5339L326.686 79.3624ZM330.786 66.105L331.299 64.6955L329.889 64.1824L329.376 65.592L330.786 66.105ZM333.148 66.9649L334.558 67.4779L335.071 66.0684L333.661 65.5554L333.148 66.9649ZM329.615 79.6008L328.237 80.1924L328.24 80.1997L329.615 79.6008ZM333.629 81.6854L333.471 80.1938L333.464 80.1945L333.629 81.6854ZM335.674 80.865L334.794 79.6497L334.785 79.6563L335.674 80.865ZM338.577 79.235L341.886 70.1451L339.067 69.119L335.758 78.209L338.577 79.235ZM339.963 71.0416L342.326 71.9015L343.352 69.0824L340.989 68.2225L339.963 71.0416ZM341.429 69.979L335.833 85.3557L338.652 86.3818L344.248 71.005L341.429 69.979ZM337.755 84.4592L335.393 83.5993L334.367 86.4184L336.729 87.2783L337.755 84.4592ZM336.289 85.5219L337.237 82.9191L334.417 81.893L333.47 84.4958L336.289 85.5219ZM336.34 80.9965L336.18 80.9382L335.154 83.7573L335.314 83.8156L336.34 80.9965ZM334.602 81.2912C334.156 81.7409 333.587 82.0773 332.853 82.2839L333.667 85.1716C334.853 84.8376 335.889 84.2539 336.732 83.4042L334.602 81.2912ZM332.862 82.2816C332.271 82.4443 331.536 82.4222 330.595 82.0797L329.569 84.8988C330.95 85.4017 332.334 85.5386 333.658 85.1739L332.862 82.2816ZM330.595 82.0797C329.846 81.8072 329.294 81.4231 328.887 80.9488L326.61 82.9028C327.392 83.8135 328.395 84.4717 329.569 84.8988L330.595 82.0797ZM328.893 80.9565C328.513 80.5077 328.262 79.9399 328.176 79.1909L325.196 79.5339C325.342 80.8044 325.8 81.9455 326.604 82.8951L328.893 80.9565ZM328.177 79.1955C328.096 78.4765 328.215 77.5539 328.639 76.3887L325.82 75.3626C325.292 76.8136 325.048 78.2155 325.195 79.5293L328.177 79.1955ZM328.639 76.3887L332.195 66.618L329.376 65.592L325.82 75.3626L328.639 76.3887ZM330.273 67.5145L332.635 68.3744L333.661 65.5554L331.299 64.6955L330.273 67.5145ZM331.739 66.4519L328.241 76.0624L331.06 77.0884L334.558 67.4779L331.739 66.4519ZM328.241 76.0624C327.733 77.4576 327.669 78.871 328.237 80.1924L330.993 79.0092C330.792 78.5392 330.752 77.9356 331.06 77.0884L328.241 76.0624ZM328.24 80.1997C328.807 81.5017 329.821 82.4059 331.16 82.8932L332.186 80.0742C331.563 79.8474 331.205 79.4963 330.99 79.002L328.24 80.1997ZM331.16 82.8932C331.995 83.1972 332.883 83.2771 333.794 83.1763L333.464 80.1945C332.942 80.2523 332.526 80.1977 332.186 80.0742L331.16 82.8932ZM333.788 83.177C334.799 83.0696 335.728 82.6863 336.562 82.0738L334.785 79.6563C334.34 79.984 333.906 80.1475 333.471 80.1938L333.788 83.177ZM336.553 82.0803C337.503 81.3933 338.154 80.3989 338.577 79.235L335.758 78.209C335.482 78.9673 335.138 79.4015 334.794 79.6498L336.553 82.0803Z" fill="#AE91FD" mask="url(#path-21-outside-11_14_20)"/>
<mask id="path-23-outside-12_14_20" maskUnits="userSpaceOnUse" x="381.454" y="93.2818" width="31.2673" height="32.1301" fill="black">
<rect fill="white" x="381.454" y="93.2818" width="31.2673" height="32.1301"/>
<path d="M389.428 117.724C388.383 116.847 387.682 115.81 387.325 114.611C386.973 113.407 386.977 112.131 387.338 110.783C387.704 109.431 388.444 108.091 389.557 106.763C390.662 105.446 391.847 104.493 393.111 103.904C394.375 103.314 395.631 103.093 396.879 103.241C398.127 103.389 399.279 103.906 400.335 104.792C401.151 105.477 401.681 106.154 401.926 106.823C402.181 107.491 402.29 108.102 402.253 108.654C402.226 109.206 402.191 109.65 402.15 109.987L402.313 110.124L407.49 103.954L409.416 105.57L395.392 122.284L393.531 120.722L395.147 118.796L394.919 118.605C394.586 118.715 394.142 118.834 393.589 118.963C393.04 119.087 392.41 119.081 391.697 118.947C390.989 118.807 390.233 118.4 389.428 117.724ZM391.14 116.213C391.913 116.861 392.735 117.208 393.606 117.253C394.481 117.292 395.359 117.069 396.239 116.584C397.124 116.093 397.963 115.374 398.758 114.427C399.543 113.492 400.094 112.559 400.411 111.629C400.732 110.693 400.791 109.806 400.586 108.967C400.387 108.122 399.895 107.371 399.111 106.714C398.295 106.029 397.439 105.668 396.544 105.63C395.658 105.592 394.78 105.815 393.91 106.299C393.05 106.783 392.25 107.465 391.511 108.346C390.762 109.239 390.218 110.164 389.878 111.121C389.549 112.077 389.473 112.996 389.651 113.878C389.839 114.759 390.335 115.537 391.14 116.213Z"/>
</mask>
<path d="M389.428 117.724C388.383 116.847 387.682 115.81 387.325 114.611C386.973 113.407 386.977 112.131 387.338 110.783C387.704 109.431 388.444 108.091 389.557 106.763C390.662 105.446 391.847 104.493 393.111 103.904C394.375 103.314 395.631 103.093 396.879 103.241C398.127 103.389 399.279 103.906 400.335 104.792C401.151 105.477 401.681 106.154 401.926 106.823C402.181 107.491 402.29 108.102 402.253 108.654C402.226 109.206 402.191 109.65 402.15 109.987L402.313 110.124L407.49 103.954L409.416 105.57L395.392 122.284L393.531 120.722L395.147 118.796L394.919 118.605C394.586 118.715 394.142 118.834 393.589 118.963C393.04 119.087 392.41 119.081 391.697 118.947C390.989 118.807 390.233 118.4 389.428 117.724ZM391.14 116.213C391.913 116.861 392.735 117.208 393.606 117.253C394.481 117.292 395.359 117.069 396.239 116.584C397.124 116.093 397.963 115.374 398.758 114.427C399.543 113.492 400.094 112.559 400.411 111.629C400.732 110.693 400.791 109.806 400.586 108.967C400.387 108.122 399.895 107.371 399.111 106.714C398.295 106.029 397.439 105.668 396.544 105.63C395.658 105.592 394.78 105.815 393.91 106.299C393.05 106.783 392.25 107.465 391.511 108.346C390.762 109.239 390.218 110.164 389.878 111.121C389.549 112.077 389.473 112.996 389.651 113.878C389.839 114.759 390.335 115.537 391.14 116.213Z" fill="#AE91FD"/>
<path d="M387.325 114.611L385.886 115.032L385.888 115.039L387.325 114.611ZM387.338 110.783L385.89 110.392L385.889 110.395L387.338 110.783ZM393.111 103.904L392.477 102.544L392.477 102.544L393.111 103.904ZM396.879 103.241L397.056 101.752L397.056 101.752L396.879 103.241ZM401.926 106.823L400.518 107.339L400.521 107.348L400.525 107.358L401.926 106.823ZM402.253 108.654L400.756 108.553L400.755 108.567L400.755 108.58L402.253 108.654ZM402.15 109.987L400.661 109.805L400.562 110.613L401.186 111.136L402.15 109.987ZM402.313 110.124L401.349 111.273L402.498 112.237L403.463 111.088L402.313 110.124ZM407.49 103.954L408.455 102.805L407.306 101.841L406.341 102.99L407.49 103.954ZM409.416 105.57L410.566 106.534L411.53 105.385L410.381 104.421L409.416 105.57ZM395.392 122.284L394.428 123.433L395.577 124.397L396.541 123.248L395.392 122.284ZM393.531 120.722L392.382 119.758L391.418 120.907L392.567 121.871L393.531 120.722ZM395.147 118.796L396.296 119.761L397.261 118.612L396.112 117.647L395.147 118.796ZM394.919 118.605L395.883 117.456L395.243 116.919L394.449 117.18L394.919 118.605ZM393.589 118.963L393.919 120.426L393.93 120.424L393.589 118.963ZM391.697 118.947L391.407 120.419L391.419 120.421L391.697 118.947ZM393.606 117.253L393.529 118.751L393.538 118.751L393.606 117.253ZM396.239 116.584L396.964 117.897L396.967 117.895L396.239 116.584ZM400.411 111.629L398.992 111.141L398.991 111.145L400.411 111.629ZM400.586 108.967L399.127 109.312L399.129 109.322L400.586 108.967ZM396.544 105.63L396.479 107.129L396.481 107.129L396.544 105.63ZM393.91 106.299L393.181 104.988L393.175 104.992L393.91 106.299ZM389.878 111.121L388.465 110.619L388.46 110.632L389.878 111.121ZM389.651 113.878L388.18 114.175L388.182 114.183L388.184 114.191L389.651 113.878ZM390.392 116.575C389.551 115.869 389.028 115.075 388.763 114.183L385.888 115.039C386.336 116.545 387.215 117.825 388.463 118.873L390.392 116.575ZM388.765 114.19C388.498 113.278 388.489 112.284 388.787 111.172L385.889 110.395C385.465 111.978 385.448 113.535 385.886 115.032L388.765 114.19ZM388.786 111.175C389.083 110.076 389.7 108.926 390.707 107.727L388.408 105.799C387.187 107.255 386.324 108.785 385.89 110.392L388.786 111.175ZM390.707 107.727C391.702 106.54 392.72 105.741 393.745 105.263L392.477 102.544C390.974 103.245 389.622 104.352 388.408 105.799L390.707 107.727ZM393.745 105.263C394.785 104.778 395.762 104.619 396.703 104.731L397.056 101.752C395.501 101.568 393.965 101.85 392.477 102.544L393.745 105.263ZM396.703 104.731C397.633 104.841 398.516 105.224 399.37 105.941L401.299 103.643C400.042 102.588 398.622 101.937 397.056 101.752L396.703 104.731ZM399.37 105.941C400.078 106.534 400.397 107.008 400.518 107.339L403.335 106.307C402.966 105.299 402.224 104.419 401.299 103.643L399.37 105.941ZM400.525 107.358C400.724 107.88 400.776 108.27 400.756 108.553L403.75 108.755C403.805 107.933 403.639 107.102 403.328 106.288L400.525 107.358ZM400.755 108.58C400.728 109.115 400.696 109.519 400.661 109.805L403.639 110.169C403.687 109.782 403.723 109.297 403.751 108.729L400.755 108.58ZM401.186 111.136L401.349 111.273L403.278 108.975L403.114 108.838L401.186 111.136ZM403.463 111.088L408.64 104.918L406.341 102.99L401.164 109.159L403.463 111.088ZM406.526 105.103L408.452 106.719L410.381 104.421L408.455 102.805L406.526 105.103ZM408.267 104.606L394.243 121.32L396.541 123.248L410.566 106.534L408.267 104.606ZM396.356 121.135L394.495 119.573L392.567 121.871L394.428 123.433L396.356 121.135ZM394.68 121.687L396.296 119.761L393.998 117.832L392.382 119.758L394.68 121.687ZM396.112 117.647L395.883 117.456L393.955 119.754L394.183 119.945L396.112 117.647ZM394.449 117.18C394.176 117.27 393.781 117.378 393.248 117.502L393.93 120.424C394.504 120.29 394.995 120.159 395.388 120.029L394.449 117.18ZM393.259 117.5C392.959 117.567 392.542 117.58 391.975 117.473L391.419 120.421C392.277 120.583 393.122 120.606 393.919 120.426L393.259 117.5ZM391.988 117.475C391.616 117.402 391.086 117.157 390.392 116.575L388.463 118.873C389.38 119.642 390.363 120.213 391.407 120.419L391.988 117.475ZM390.176 117.362C391.158 118.186 392.283 118.687 393.529 118.751L393.683 115.755C393.187 115.729 392.668 115.537 392.105 115.064L390.176 117.362ZM393.538 118.751C394.729 118.805 395.878 118.496 396.964 117.897L395.515 115.27C394.841 115.642 394.234 115.779 393.673 115.754L393.538 118.751ZM396.967 117.895C398.043 117.298 399.02 116.449 399.907 115.392L397.609 113.463C396.907 114.299 396.205 114.887 395.512 115.272L396.967 117.895ZM399.907 115.392C400.783 114.347 401.442 113.255 401.831 112.112L398.991 111.145C398.747 111.862 398.303 112.636 397.609 113.463L399.907 115.392ZM401.83 112.116C402.23 110.949 402.326 109.768 402.044 108.611L399.129 109.322C399.256 109.843 399.235 110.436 398.992 111.141L401.83 112.116ZM402.046 108.621C401.759 107.409 401.061 106.391 400.076 105.565L398.147 107.863C398.729 108.351 399.014 108.835 399.127 109.312L402.046 108.621ZM400.076 105.565C399.055 104.708 397.892 104.185 396.607 104.131L396.481 107.129C396.987 107.15 397.535 107.349 398.147 107.863L400.076 105.565ZM396.609 104.131C395.413 104.079 394.262 104.386 393.181 104.988L394.64 107.61C395.298 107.243 395.904 107.104 396.479 107.129L396.609 104.131ZM393.175 104.992C392.134 105.577 391.199 106.385 390.362 107.382L392.66 109.311C393.302 108.545 393.967 107.988 394.646 107.607L393.175 104.992ZM390.362 107.382C389.515 108.392 388.872 109.47 388.465 110.619L391.292 111.622C391.564 110.857 392.01 110.086 392.66 109.311L390.362 107.382ZM388.46 110.632C388.054 111.809 387.943 113 388.18 114.175L391.121 113.581C391.002 112.993 391.043 112.346 391.296 111.61L388.46 110.632ZM388.184 114.191C388.453 115.452 389.16 116.509 390.176 117.362L392.105 115.064C391.511 114.566 391.225 114.066 391.118 113.565L388.184 114.191Z" fill="#AE91FD" mask="url(#path-23-outside-12_14_20)"/>
<mask id="path-25-outside-13_14_20" maskUnits="userSpaceOnUse" x="421.458" y="152.389" width="32.5167" height="30.3205" fill="black">
<rect fill="white" x="421.458" y="152.389" width="32.5167" height="30.3205"/>
<path d="M425.686 168.985C425.473 168.616 425.314 168.269 425.209 167.945C425.097 167.624 425.037 167.392 425.029 167.249L427.267 166.695C427.437 167.302 427.658 167.798 427.929 168.182C428.201 168.567 428.59 168.822 429.097 168.948C429.601 169.083 430.29 169.075 431.162 168.924L432.504 168.691L443.723 155.226L445.087 157.588L436.053 168.019L436.138 168.167L449.689 165.559L451.053 167.921L431.342 171.28C430.454 171.432 429.654 171.447 428.944 171.324C428.227 171.205 427.599 170.948 427.06 170.554C426.524 170.166 426.066 169.643 425.686 168.985Z"/>
</mask>
<path d="M425.686 168.985C425.473 168.616 425.314 168.269 425.209 167.945C425.097 167.624 425.037 167.392 425.029 167.249L427.267 166.695C427.437 167.302 427.658 167.798 427.929 168.182C428.201 168.567 428.59 168.822 429.097 168.948C429.601 169.083 430.29 169.075 431.162 168.924L432.504 168.691L443.723 155.226L445.087 157.588L436.053 168.019L436.138 168.167L449.689 165.559L451.053 167.921L431.342 171.28C430.454 171.432 429.654 171.447 428.944 171.324C428.227 171.205 427.599 170.948 427.06 170.554C426.524 170.166 426.066 169.643 425.686 168.985Z" fill="#AE91FD"/>
<path d="M425.209 167.945L426.635 167.482L426.631 167.467L426.626 167.452L425.209 167.945ZM425.029 167.249L424.668 165.793L423.456 166.093L423.531 167.339L425.029 167.249ZM427.267 166.695L428.712 166.29L428.319 164.889L426.907 165.239L427.267 166.695ZM427.929 168.182L429.155 167.318L429.155 167.318L427.929 168.182ZM429.097 168.948L429.485 167.499L429.471 167.495L429.457 167.491L429.097 168.948ZM431.162 168.924L431.418 170.402L431.419 170.402L431.162 168.924ZM432.504 168.691L432.761 170.168L433.303 170.074L433.656 169.651L432.504 168.691ZM443.723 155.226L445.022 154.476L443.947 152.614L442.571 154.266L443.723 155.226ZM445.087 157.588L446.221 158.57L446.92 157.762L446.386 156.838L445.087 157.588ZM436.053 168.019L434.919 167.037L434.22 167.845L434.753 168.769L436.053 168.019ZM436.138 168.167L434.839 168.917L435.373 169.842L436.421 169.64L436.138 168.167ZM449.689 165.559L450.988 164.809L450.454 163.884L449.406 164.086L449.689 165.559ZM451.053 167.921L451.305 169.4L453.429 169.037L452.352 167.171L451.053 167.921ZM431.342 171.28L431.09 169.802L431.089 169.802L431.342 171.28ZM428.944 171.324L429.199 169.846L429.19 169.844L428.944 171.324ZM427.06 170.554L427.945 169.343L427.94 169.339L427.06 170.554ZM426.985 168.235C426.813 167.936 426.702 167.685 426.635 167.482L423.782 168.408C423.927 168.853 424.134 169.297 424.387 169.735L426.985 168.235ZM426.626 167.452C426.578 167.316 426.549 167.218 426.532 167.154C426.524 167.123 426.521 167.106 426.52 167.103C426.519 167.097 426.523 167.118 426.526 167.159L423.531 167.339C423.553 167.709 423.68 168.115 423.792 168.437L426.626 167.452ZM425.389 168.705L427.628 168.151L426.907 165.239L424.668 165.793L425.389 168.705ZM425.823 167.099C426.024 167.819 426.307 168.484 426.703 169.047L429.155 167.318C429.009 167.111 428.85 166.785 428.712 166.29L425.823 167.099ZM426.703 169.047C427.206 169.759 427.92 170.202 428.737 170.404L429.457 167.491C429.259 167.442 429.195 167.375 429.155 167.318L426.703 169.047ZM428.709 170.396C429.521 170.614 430.46 170.568 431.418 170.402L430.906 167.446C430.119 167.582 429.682 167.551 429.485 167.499L428.709 170.396ZM431.419 170.402L432.761 170.168L432.247 167.213L430.905 167.446L431.419 170.402ZM433.656 169.651L444.876 156.186L442.571 154.266L431.351 167.73L433.656 169.651ZM442.424 155.976L443.788 158.338L446.386 156.838L445.022 154.476L442.424 155.976ZM443.953 156.606L434.919 167.037L437.186 169.001L446.221 158.57L443.953 156.606ZM434.753 168.769L434.839 168.917L437.437 167.417L437.352 167.269L434.753 168.769ZM436.421 169.64L449.973 167.032L449.406 164.086L435.854 166.694L436.421 169.64ZM448.39 166.309L449.754 168.671L452.352 167.171L450.988 164.809L448.39 166.309ZM450.801 166.442L431.09 169.802L431.594 172.759L451.305 169.4L450.801 166.442ZM431.089 169.802C430.329 169.932 429.705 169.934 429.199 169.846L428.688 172.802C429.603 172.96 430.578 172.933 431.595 172.759L431.089 169.802ZM429.19 169.844C428.683 169.76 428.279 169.587 427.945 169.343L426.175 171.765C426.919 172.309 427.77 172.65 428.697 172.804L429.19 169.844ZM427.94 169.339C427.599 169.092 427.276 168.738 426.985 168.235L424.387 169.735C424.857 170.549 425.45 171.24 426.18 171.769L427.94 169.339Z" fill="#AE91FD" mask="url(#path-25-outside-13_14_20)"/>
<mask id="path-27-outside-14_14_20" maskUnits="userSpaceOnUse" x="460.467" y="223.459" width="9.15108" height="14.018" fill="black">
<rect fill="white" x="460.467" y="223.459" width="9.15108" height="14.018"/>
<path d="M466.859 234.862L464.55 235.269L462.893 225.868L465.201 225.461L466.859 234.862Z"/>
</mask>
<path d="M466.859 234.862L464.55 235.269L462.893 225.868L465.201 225.461L466.859 234.862Z" fill="#AE91FD"/>
<path d="M466.859 234.862L467.119 236.339L468.596 236.079L468.336 234.601L466.859 234.862ZM464.55 235.269L463.073 235.529L463.334 237.007L464.811 236.746L464.55 235.269ZM462.893 225.868L462.632 224.391L461.155 224.652L461.416 226.129L462.893 225.868ZM465.201 225.461L466.678 225.201L466.418 223.724L464.941 223.984L465.201 225.461ZM466.598 233.385L464.29 233.792L464.811 236.746L467.119 236.339L466.598 233.385ZM466.028 235.008L464.37 225.608L461.416 226.129L463.073 235.529L466.028 235.008ZM463.153 227.346L465.461 226.939L464.941 223.984L462.632 224.391L463.153 227.346ZM463.724 225.722L465.381 235.122L468.336 234.601L466.678 225.201L463.724 225.722Z" fill="#AE91FD" mask="url(#path-27-outside-14_14_20)"/>
<mask id="path-29-outside-15_14_20" maskUnits="userSpaceOnUse" x="452.262" y="290.254" width="23.633" height="20.3883" fill="black">
<rect fill="white" x="452.262" y="290.254" width="23.633" height="20.3883"/>
<path d="M466.045 297.034L456.351 295.325L456.787 292.849L472.902 295.69L472.481 298.082L469.963 297.638L469.926 297.848C470.677 298.37 471.234 299.06 471.595 299.917C471.963 300.775 472.039 301.812 471.825 303.029C471.632 304.12 471.24 305.036 470.648 305.775C470.063 306.516 469.28 307.034 468.297 307.329C467.322 307.626 466.148 307.654 464.778 307.412L454.538 305.606L454.974 303.13L465.046 304.906C466.312 305.13 467.356 304.975 468.179 304.442C469.008 303.91 469.524 303.071 469.726 301.924C469.866 301.133 469.819 300.397 469.586 299.714C469.352 299.038 468.937 298.464 468.343 297.991C467.748 297.518 466.982 297.199 466.045 297.034Z"/>
</mask>
<path d="M466.045 297.034L456.351 295.325L456.787 292.849L472.902 295.69L472.481 298.082L469.963 297.638L469.926 297.848C470.677 298.37 471.234 299.06 471.595 299.917C471.963 300.775 472.039 301.812 471.825 303.029C471.632 304.12 471.24 305.036 470.648 305.775C470.063 306.516 469.28 307.034 468.297 307.329C467.322 307.626 466.148 307.654 464.778 307.412L454.538 305.606L454.974 303.13L465.046 304.906C466.312 305.13 467.356 304.975 468.179 304.442C469.008 303.91 469.524 303.071 469.726 301.924C469.866 301.133 469.819 300.397 469.586 299.714C469.352 299.038 468.937 298.464 468.343 297.991C467.748 297.518 466.982 297.199 466.045 297.034Z" fill="#AE91FD"/>
<path d="M456.351 295.325L454.874 295.064L454.613 296.541L456.09 296.802L456.351 295.325ZM456.787 292.849L457.048 291.371L455.571 291.111L455.31 292.588L456.787 292.849ZM472.902 295.69L474.38 295.951L474.64 294.473L473.163 294.213L472.902 295.69ZM472.481 298.082L472.22 299.559L473.697 299.82L473.958 298.343L472.481 298.082ZM469.963 297.638L470.223 296.161L468.746 295.901L468.485 297.378L469.963 297.638ZM469.926 297.848L468.448 297.588L468.282 298.533L469.07 299.08L469.926 297.848ZM471.595 299.917L470.212 300.499L470.216 300.508L471.595 299.917ZM470.648 305.775L469.477 304.838L469.471 304.845L470.648 305.775ZM468.297 307.329L467.865 305.893L467.861 305.894L468.297 307.329ZM454.538 305.606L453.061 305.346L452.8 306.823L454.277 307.084L454.538 305.606ZM454.974 303.13L455.235 301.653L453.758 301.393L453.497 302.87L454.974 303.13ZM468.179 304.442L467.369 303.179L467.363 303.183L468.179 304.442ZM469.586 299.714L471.006 299.229L471.003 299.223L469.586 299.714ZM468.343 297.991L469.276 296.817L469.276 296.817L468.343 297.991ZM466.305 295.557L456.611 293.847L456.09 296.802L465.785 298.511L466.305 295.557ZM457.828 295.585L458.265 293.109L455.31 292.588L454.874 295.064L457.828 295.585ZM456.527 294.326L472.642 297.167L473.163 294.213L457.048 291.371L456.527 294.326ZM471.425 295.43L471.003 297.822L473.958 298.343L474.38 295.951L471.425 295.43ZM472.741 296.605L470.223 296.161L469.702 299.116L472.22 299.559L472.741 296.605ZM468.485 297.378L468.448 297.588L471.403 298.109L471.44 297.899L468.485 297.378ZM469.07 299.08C469.584 299.437 469.96 299.9 470.212 300.499L472.977 299.334C472.508 298.22 471.771 297.303 470.781 296.616L469.07 299.08ZM470.216 300.508C470.437 301.024 470.527 301.748 470.347 302.769L473.302 303.29C473.551 301.877 473.488 300.526 472.973 299.325L470.216 300.508ZM470.347 302.769C470.191 303.654 469.887 304.326 469.477 304.838L471.819 306.713C472.593 305.746 473.073 304.586 473.302 303.29L470.347 302.769ZM469.471 304.845C469.093 305.324 468.58 305.678 467.865 305.893L468.729 308.766C469.979 308.39 471.033 307.708 471.825 306.705L469.471 304.845ZM467.861 305.894C467.178 306.102 466.257 306.15 465.038 305.935L464.517 308.889C466.04 309.158 467.465 309.15 468.734 308.764L467.861 305.894ZM465.038 305.935L454.798 304.129L454.277 307.084L464.517 308.889L465.038 305.935ZM456.015 305.867L456.452 303.391L453.497 302.87L453.061 305.346L456.015 305.867ZM454.714 304.608L464.786 306.384L465.307 303.429L455.235 301.653L454.714 304.608ZM464.786 306.384C466.306 306.652 467.765 306.498 468.995 305.701L467.363 303.183C466.948 303.452 466.319 303.608 465.307 303.429L464.786 306.384ZM468.988 305.705C470.235 304.905 470.943 303.662 471.203 302.184L468.249 301.663C468.105 302.48 467.781 302.915 467.369 303.179L468.988 305.705ZM471.203 302.184C471.382 301.173 471.329 300.178 471.006 299.23L468.166 300.198C468.309 300.616 468.35 301.093 468.249 301.663L471.203 302.184ZM471.003 299.223C470.67 298.261 470.079 297.455 469.276 296.817L467.409 299.165C467.795 299.472 468.033 299.815 468.169 300.205L471.003 299.223ZM469.276 296.817C468.443 296.154 467.428 295.755 466.305 295.557L465.785 298.511C466.537 298.644 467.054 298.882 467.409 299.165L469.276 296.817Z" fill="#AE91FD" mask="url(#path-29-outside-15_14_20)"/>
<mask id="path-31-outside-16_14_20" maskUnits="userSpaceOnUse" x="426.312" y="352.958" width="27.6865" height="26.9545" fill="black">
<rect fill="white" x="426.312" y="352.958" width="27.6865" height="26.9545"/>
<path d="M432.372 362.235C433.111 360.956 434.063 360.009 435.23 359.395C436.392 358.787 437.678 358.529 439.085 358.619C440.489 358.716 441.923 359.187 443.386 360.033C444.863 360.885 445.997 361.896 446.789 363.067C447.577 364.244 447.999 365.488 448.054 366.799C448.105 368.116 447.762 369.415 447.023 370.694C446.284 371.973 445.334 372.917 444.171 373.525C443.004 374.139 441.716 374.396 440.306 374.295C438.893 374.201 437.448 373.728 435.972 372.875C434.508 372.03 433.385 371.021 432.602 369.848C431.816 368.68 431.398 367.438 431.346 366.121C431.291 364.81 431.633 363.515 432.372 362.235ZM434.328 363.365C433.767 364.336 433.554 365.28 433.69 366.195C433.826 367.11 434.213 367.952 434.851 368.723C435.489 369.493 436.282 370.151 437.229 370.698C438.176 371.245 439.146 371.604 440.138 371.775C441.13 371.946 442.059 371.863 442.926 371.527C443.792 371.191 444.506 370.537 445.067 369.565C445.628 368.593 445.838 367.648 445.695 366.729C445.553 365.811 445.16 364.965 444.516 364.191C443.872 363.417 443.077 362.757 442.129 362.21C441.182 361.663 440.216 361.306 439.23 361.139C438.244 360.971 437.321 361.057 436.46 361.397C435.6 361.737 434.889 362.393 434.328 363.365Z"/>
</mask>
<path d="M432.372 362.235C433.111 360.956 434.063 360.009 435.23 359.395C436.392 358.787 437.678 358.529 439.085 358.619C440.489 358.716 441.923 359.187 443.386 360.033C444.863 360.885 445.997 361.896 446.789 363.067C447.577 364.244 447.999 365.488 448.054 366.799C448.105 368.116 447.762 369.415 447.023 370.694C446.284 371.973 445.334 372.917 444.171 373.525C443.004 374.139 441.716 374.396 440.306 374.295C438.893 374.201 437.448 373.728 435.972 372.875C434.508 372.03 433.385 371.021 432.602 369.848C431.816 368.68 431.398 367.438 431.346 366.121C431.291 364.81 431.633 363.515 432.372 362.235ZM434.328 363.365C433.767 364.336 433.554 365.28 433.69 366.195C433.826 367.11 434.213 367.952 434.851 368.723C435.489 369.493 436.282 370.151 437.229 370.698C438.176 371.245 439.146 371.604 440.138 371.775C441.13 371.946 442.059 371.863 442.926 371.527C443.792 371.191 444.506 370.537 445.067 369.565C445.628 368.593 445.838 367.648 445.695 366.729C445.553 365.811 445.16 364.965 444.516 364.191C443.872 363.417 443.077 362.757 442.129 362.21C441.182 361.663 440.216 361.306 439.23 361.139C438.244 360.971 437.321 361.057 436.46 361.397C435.6 361.737 434.889 362.393 434.328 363.365Z" fill="#AE91FD"/>
<path d="M435.23 359.395L434.535 358.066L434.531 358.068L435.23 359.395ZM439.085 358.619L439.188 357.123L439.182 357.122L439.085 358.619ZM446.789 363.067L448.035 362.232L448.031 362.227L446.789 363.067ZM448.054 366.799L449.553 366.741L449.553 366.736L448.054 366.799ZM444.171 373.525L443.476 372.196L443.472 372.198L444.171 373.525ZM440.306 374.295L440.413 372.799L440.406 372.799L440.306 374.295ZM432.602 369.848L433.85 369.015L433.847 369.01L432.602 369.848ZM431.346 366.121L432.845 366.062L432.845 366.058L431.346 366.121ZM433.69 366.195L435.174 365.974L435.174 365.974L433.69 366.195ZM434.851 368.723L433.696 369.679L433.696 369.679L434.851 368.723ZM440.138 371.775L439.883 373.253L439.883 373.253L440.138 371.775ZM442.926 371.527L443.468 372.925L443.468 372.925L442.926 371.527ZM445.695 366.729L447.178 366.5L447.178 366.5L445.695 366.729ZM444.516 364.191L445.669 363.231L445.669 363.231L444.516 364.191ZM439.23 361.139L439.481 359.66L439.481 359.66L439.23 361.139ZM436.46 361.397L437.011 362.792L437.011 362.792L436.46 361.397ZM433.671 362.985C434.286 361.921 435.042 361.189 435.928 360.722L434.531 358.068C433.084 358.829 431.936 359.991 431.073 361.485L433.671 362.985ZM435.925 360.724C436.826 360.253 437.834 360.042 438.988 360.116L439.182 357.122C437.521 357.015 435.959 357.321 434.535 358.066L435.925 360.724ZM438.982 360.116C440.116 360.194 441.331 360.578 442.636 361.332L444.136 358.734C442.514 357.797 440.861 357.239 439.188 357.123L438.982 360.116ZM442.636 361.332C443.956 362.093 444.905 362.96 445.546 363.908L448.031 362.227C447.088 360.833 445.769 359.676 444.136 358.734L442.636 361.332ZM445.543 363.902C446.19 364.869 446.513 365.849 446.555 366.862L449.553 366.736C449.485 365.128 448.964 363.62 448.035 362.232L445.543 363.902ZM446.555 366.858C446.594 367.859 446.339 368.879 445.724 369.944L448.322 371.444C449.185 369.95 449.616 368.374 449.553 366.741L446.555 366.858ZM445.724 369.944C445.109 371.009 444.356 371.736 443.476 372.196L444.866 374.854C446.312 374.098 447.46 372.938 448.322 371.444L445.724 369.944ZM443.472 372.198C442.571 372.672 441.565 372.881 440.413 372.799L440.199 375.792C441.867 375.911 443.438 375.606 444.869 374.852L443.472 372.198ZM440.406 372.799C439.263 372.722 438.039 372.337 436.722 371.576L435.222 374.174C436.857 375.118 438.522 375.68 440.206 375.792L440.406 372.799ZM436.722 371.576C435.418 370.824 434.482 369.963 433.85 369.015L431.354 370.68C432.288 372.079 433.597 373.237 435.222 374.174L436.722 371.576ZM433.847 369.01C433.205 368.057 432.885 367.082 432.845 366.062L429.848 366.179C429.911 367.794 430.428 369.303 431.358 370.685L433.847 369.01ZM432.845 366.058C432.804 365.066 433.056 364.05 433.671 362.985L431.073 361.485C430.21 362.979 429.779 364.554 429.848 366.184L432.845 366.058ZM433.029 362.615C432.336 363.815 432.011 365.098 432.207 366.415L435.174 365.974C435.098 365.461 435.198 364.857 435.627 364.115L433.029 362.615ZM432.207 366.415C432.386 367.623 432.898 368.716 433.696 369.679L436.006 367.766C435.528 367.189 435.266 366.597 435.174 365.974L432.207 366.415ZM433.696 369.679C434.458 370.599 435.392 371.369 436.479 371.997L437.979 369.399C437.171 368.933 436.52 368.386 436.006 367.766L433.696 369.679ZM436.479 371.997C437.566 372.625 438.702 373.049 439.883 373.253L440.392 370.296C439.589 370.158 438.786 369.865 437.979 369.399L436.479 371.997ZM439.883 373.253C441.12 373.466 442.327 373.368 443.468 372.925L442.383 370.128C441.791 370.358 441.139 370.425 440.392 370.296L439.883 373.253ZM443.468 372.925C444.716 372.441 445.671 371.519 446.366 370.315L443.768 368.815C443.341 369.554 442.869 369.94 442.383 370.128L443.468 372.925ZM446.366 370.315C447.061 369.11 447.382 367.822 447.178 366.5L444.213 366.959C444.293 367.473 444.195 368.075 443.768 368.815L446.366 370.315ZM447.178 366.5C446.991 365.29 446.472 364.196 445.669 363.231L443.363 365.15C443.848 365.733 444.116 366.331 444.213 366.959L447.178 366.5ZM445.669 363.231C444.902 362.31 443.966 361.539 442.879 360.911L441.379 363.509C442.187 363.975 442.842 364.524 443.363 365.15L445.669 363.231ZM442.879 360.911C441.792 360.283 440.658 359.86 439.481 359.66L438.979 362.617C439.773 362.752 440.572 363.043 441.379 363.509L442.879 360.911ZM439.481 359.66C438.248 359.45 437.045 359.554 435.909 360.002L437.011 362.792C437.596 362.561 438.24 362.492 438.979 362.617L439.481 359.66ZM435.909 360.002C434.671 360.491 433.722 361.414 433.029 362.615L435.627 364.115C436.056 363.372 436.529 362.983 437.011 362.792L435.909 360.002Z" fill="#AE91FD" mask="url(#path-31-outside-16_14_20)"/>
<mask id="path-33-outside-17_14_20" maskUnits="userSpaceOnUse" x="376.931" y="404.45" width="33.539" height="32.6762" fill="black">
<rect fill="white" x="376.931" y="404.45" width="33.539" height="32.6762"/>
<path d="M393.339 410.648L407.677 419.978L405.653 421.677L394.89 414.353L394.759 414.462L400.136 426.306L398.079 428.032L387.409 420.686L387.279 420.795L392.595 432.633L390.571 434.332L383.872 418.592L385.765 417.003L396.588 424.332L396.784 424.168L391.445 412.237L393.339 410.648Z"/>
</mask>
<path d="M393.339 410.648L407.677 419.978L405.653 421.677L394.89 414.353L394.759 414.462L400.136 426.306L398.079 428.032L387.409 420.686L387.279 420.795L392.595 432.633L390.571 434.332L383.872 418.592L385.765 417.003L396.588 424.332L396.784 424.168L391.445 412.237L393.339 410.648Z" fill="#AE91FD"/>
<path d="M393.339 410.648L394.157 409.391L393.226 408.785L392.375 409.499L393.339 410.648ZM407.677 419.978L408.641 421.128L410.192 419.826L408.495 418.721L407.677 419.978ZM405.653 421.677L404.809 422.917L405.747 423.555L406.617 422.826L405.653 421.677ZM394.89 414.353L395.734 413.113L394.795 412.474L393.926 413.204L394.89 414.353ZM394.759 414.462L393.795 413.313L392.923 414.045L393.394 415.083L394.759 414.462ZM400.136 426.306L401.1 427.455L401.972 426.723L401.502 425.686L400.136 426.306ZM398.079 428.032L397.229 429.267L398.169 429.914L399.043 429.181L398.079 428.032ZM387.409 420.686L388.26 419.45L387.32 418.803L386.445 419.537L387.409 420.686ZM387.279 420.795L386.315 419.646L385.446 420.375L385.91 421.41L387.279 420.795ZM392.595 432.633L393.559 433.782L394.428 433.053L393.963 432.019L392.595 432.633ZM390.571 434.332L389.191 434.919L389.984 436.782L391.535 435.481L390.571 434.332ZM383.872 418.592L382.908 417.442L382.057 418.157L382.492 419.179L383.872 418.592ZM385.765 417.003L386.607 415.761L385.669 415.126L384.801 415.854L385.765 417.003ZM396.588 424.332L395.747 425.574L396.685 426.209L397.552 425.481L396.588 424.332ZM396.784 424.168L397.748 425.317L398.616 424.589L398.153 423.555L396.784 424.168ZM391.445 412.237L390.481 411.088L389.614 411.816L390.076 412.849L391.445 412.237ZM392.521 411.905L406.858 421.236L408.495 418.721L394.157 409.391L392.521 411.905ZM406.712 418.829L404.688 420.528L406.617 422.826L408.641 421.128L406.712 418.829ZM406.496 420.437L395.734 413.113L394.046 415.593L404.809 422.917L406.496 420.437ZM393.926 413.204L393.795 413.313L395.724 415.612L395.854 415.502L393.926 413.204ZM393.394 415.083L398.77 426.926L401.502 425.686L396.125 413.842L393.394 415.083ZM399.172 425.157L397.115 426.883L399.043 429.181L401.1 427.455L399.172 425.157ZM398.93 426.796L388.26 419.45L386.559 421.921L397.229 429.267L398.93 426.796ZM386.445 419.537L386.315 419.646L388.243 421.944L388.374 421.835L386.445 419.537ZM385.91 421.41L391.227 433.248L393.963 432.019L388.647 420.181L385.91 421.41ZM391.631 431.484L389.607 433.183L391.535 435.481L393.559 433.782L391.631 431.484ZM391.951 433.744L385.252 418.004L382.492 419.179L389.191 434.919L391.951 433.744ZM384.836 419.741L386.73 418.152L384.801 415.854L382.908 417.442L384.836 419.741ZM384.924 418.245L395.747 425.574L397.429 423.09L386.607 415.761L384.924 418.245ZM397.552 425.481L397.748 425.317L395.82 423.018L395.624 423.183L397.552 425.481ZM398.153 423.555L392.815 411.624L390.076 412.849L395.415 424.78L398.153 423.555ZM392.41 413.386L394.303 411.797L392.375 409.499L390.481 411.088L392.41 413.386Z" fill="#AE91FD" mask="url(#path-33-outside-17_14_20)"/>
<mask id="path-35-outside-18_14_20" maskUnits="userSpaceOnUse" x="327.034" y="450.994" width="14.6101" height="11.0241" fill="black">
<rect fill="white" x="327.034" y="450.994" width="14.6101" height="11.0241"/>
<path d="M330.328 459.058L329.526 456.855L338.496 453.591L339.298 455.793L330.328 459.058Z"/>
</mask>
<path d="M330.328 459.058L329.526 456.855L338.496 453.591L339.298 455.793L330.328 459.058Z" fill="#AE91FD"/>
<path d="M330.328 459.058L328.918 459.571L329.431 460.98L330.841 460.467L330.328 459.058ZM329.526 456.855L329.013 455.446L327.604 455.959L328.117 457.368L329.526 456.855ZM338.496 453.591L339.906 453.078L339.393 451.668L337.983 452.181L338.496 453.591ZM339.298 455.793L339.811 457.203L341.22 456.69L340.707 455.28L339.298 455.793ZM331.738 458.545L330.936 456.342L328.117 457.368L328.918 459.571L331.738 458.545ZM330.039 458.265L339.009 455L337.983 452.181L329.013 455.446L330.039 458.265ZM337.087 454.104L337.888 456.306L340.707 455.28L339.906 453.078L337.087 454.104ZM338.785 454.384L329.815 457.648L330.841 460.467L339.811 457.203L338.785 454.384Z" fill="#AE91FD" mask="url(#path-35-outside-18_14_20)"/>
</svg>
